<?xml version="1.0" encoding="UTF-8"?>
<svg version="1.1" xmlns="http://www.w3.org/2000/svg" width="225" height="225">
<path d="M0 0 C2.79591551 2.9546959 3.42402697 5.24520999 3.6875 9.25 C3.75324219 10.14203125 3.81898437 11.0340625 3.88671875 11.953125 C3.94279297 12.96632813 3.94279297 12.96632813 4 14 C4.99 13.34 5.98 12.68 7 12 C7.969375 11.938125 8.93875 11.87625 9.9375 11.8125 C13.00283404 11.34019407 13.00283404 11.34019407 14.171875 9.41796875 C15.12523737 7.61758058 16.06317211 5.80904696 17 4 C17.99 3.67 18.98 3.34 20 3 C22.42576639 4.79976216 23.82393294 6.20699394 24.48828125 9.19921875 C24.80558957 12.14024064 25 15.04204601 25 18 C25.5775 17.67 26.155 17.34 26.75 17 C29 16 29 16 33 16 C33.8125 18.625 33.8125 18.625 34 22 C32.57631048 24.3586498 30.94551992 26.00702837 29 28 C30.65 28.66 32.3 29.32 34 30 C33.50769231 36.4 33.50769231 36.4 30.9375 39.4375 C29.9784375 40.2109375 29.9784375 40.2109375 29 41 C30.65 41.66 32.3 42.32 34 43 C33.93187033 46.40648331 33.73888108 49.03505898 31.62109375 51.80078125 C28.35059392 54.86641756 26.63682299 55.93935019 22.0625 56.375 C21.051875 56.25125 20.04125 56.1275 19 56 C19.61538462 48.49230769 19.61538462 48.49230769 21.5625 46 C22.036875 45.67 22.51125 45.34 23 45 C21.68 44.34 20.36 43.68 19 43 C19.45822468 39.53058454 19.89131683 36.32604951 21 33 C21.66 32.67 22.32 32.34 23 32 C21.68 31.34 20.36 30.68 19 30 C19.103125 28.9275 19.20625 27.855 19.3125 26.75 C19.40072402 22.85789852 19.40072402 22.85789852 16.5 20.5625 C15.675 20.046875 14.85 19.53125 14 19 C12.35 20.65 10.7 22.3 9 24 C10.98 24.33 12.96 24.66 15 25 C14.58525633 30.28798182 13.64775386 33.11690718 10 37 C11.32 37 12.64 37 14 37 C14.95892499 39.58909747 15.0552238 40.81592068 14.25 43.5 C13.04232114 45.91535773 11.70248726 47.91058382 10 50 C11.32 50 12.64 50 14 50 C15 53 15 53 13.8125 56.4375 C12.14209341 59.72071296 10.8800959 61.74992508 8 64 C7.01 64 6.02 64 5 64 C5.969375 64.433125 6.93875 64.86625 7.9375 65.3125 C11 67 11 67 12 70 C11.2578125 71.83203125 11.2578125 71.83203125 10.125 73.8125 C8.15701629 77.25991203 6.83942995 79.97601716 7 84 C9.91710349 87.78474197 13.67480391 90.77451424 17.26367188 93.90234375 C22.76894318 98.97285982 22.76894318 98.97285982 23.45385742 102.01757812 C23.41418911 104.01705572 23.20711827 106.01088305 23 108 C23.41097002 110.59505596 23.88949123 113.18038949 24.4375 115.75 C24.70433594 117.02359375 24.97117187 118.2971875 25.24609375 119.609375 C25.7964992 122.0847736 26.36178286 124.54627195 27 127 C24 129 24 129 20 129 C17.18452711 120.02977242 15 111.47001108 15 102 C13.55251926 100.40891998 12.04224526 98.87440511 10.5 97.375 C9.6646875 96.55773437 8.829375 95.74046875 7.96875 94.8984375 C7.3190625 94.27195312 6.669375 93.64546875 6 93 C4.515 93.495 4.515 93.495 3 94 C3.33 94.99 3.66 95.98 4 97 C4.02820684 99.72287633 3.99859637 102.41323014 3.9140625 105.1328125 C3.89282318 105.9252536 3.87158386 106.7176947 3.84970093 107.53414917 C3.8034851 109.20692325 3.75456061 110.87962438 3.703125 112.55224609 C3.62509364 115.12191637 3.55804733 117.69171088 3.4921875 120.26171875 C3.44596945 121.8854355 3.39911637 123.50913432 3.3515625 125.1328125 C3.33171295 125.90569611 3.3118634 126.67857971 3.29141235 127.47488403 C3.11508578 132.88491422 3.11508578 132.88491422 2 134 C-1.5 134.125 -1.5 134.125 -5 134 C-6 133 -6 133 -6.11352539 129.30639648 C-6.11336624 127.66128708 -6.10766988 126.01617269 -6.09765625 124.37109375 C-6.0962413 123.50686295 -6.09482635 122.64263214 -6.09336853 121.75221252 C-6.08775239 118.98060708 -6.07519719 116.2090812 -6.0625 113.4375 C-6.05748708 111.5631522 -6.05292381 109.68880315 -6.04882812 107.81445312 C-6.03777772 103.20960456 -6.0205023 98.60481579 -6 94 C-6.99 94.495 -6.99 94.495 -8 95 C-7.94779297 96.11181641 -7.94779297 96.11181641 -7.89453125 97.24609375 C-7.72173692 103.96861587 -8.1634652 110.25914689 -9.3125 116.875 C-9.43020752 117.5755249 -9.54791504 118.2760498 -9.66918945 118.99780273 C-10.53748548 123.67815719 -11.98900681 127.68509584 -14 132 C-15.98 131.67 -17.96 131.34 -20 131 C-19.70956145 129.37478005 -19.41756108 127.74983921 -19.125 126.125 C-18.94453125 125.11953125 -18.7640625 124.1140625 -18.578125 123.078125 C-18.06183266 120.32921713 -17.47620466 117.60618689 -16.875 114.875 C-15.91061212 110.17360907 -15.84546641 105.79054124 -16 101 C-18.36157241 104.54235861 -18.25322259 106.23617949 -18.375 110.4375 C-18.76370182 117.48547081 -20.42456615 123.45959589 -23 130 C-25.97 129.01 -25.97 129.01 -29 128 C-28.81824219 127.01773438 -28.81824219 127.01773438 -28.6328125 126.015625 C-28.27885442 124.08791487 -27.92890154 122.15946685 -27.58203125 120.23046875 C-27.19186231 118.0649002 -26.79332843 115.90082316 -26.38671875 113.73828125 C-26.19722656 112.69027344 -26.00773437 111.64226562 -25.8125 110.5625 C-25.63332031 109.59441406 -25.45414063 108.62632812 -25.26953125 107.62890625 C-24.83733766 105.05172525 -24.83733766 105.05172525 -25.6328125 102.85546875 C-25.75398438 102.24316406 -25.87515625 101.63085938 -26 101 C-24.78515625 99.296875 -24.78515625 99.296875 -23.0625 97.75 C-22.49660156 97.22921875 -21.93070313 96.7084375 -21.34765625 96.171875 C-20.68056641 95.59179688 -20.68056641 95.59179688 -20 95 C-22.64 94.67 -25.28 94.34 -28 94 C-27.67 94.99 -27.34 95.98 -27 97 C-26.59507055 102.97270945 -27.2969236 108.45658499 -28.375 114.3125 C-28.50100586 115.00625732 -28.62701172 115.70001465 -28.75683594 116.41479492 C-29.43310409 119.88762583 -30.19125328 122.9408588 -32 126 C-33.98 125.01 -35.96 124.02 -38 123 C-37.7834375 122.14019531 -37.566875 121.28039062 -37.34375 120.39453125 C-35.47793362 112.47344969 -33.52736843 104.14005795 -35 96 C-36.29241228 94.62696465 -37.62150897 93.28659163 -39 92 C-38.690625 90.63875 -38.690625 90.63875 -38.375 89.25 C-37.94585838 85.53077261 -38.31591461 84.90862593 -40.375 81.9375 C-47.57320181 73.34238688 -56.22359922 72.02705384 -67 71 C-67.6875 69.1875 -67.6875 69.1875 -68 67 C-66.56325144 64.91576936 -65.59804777 64.13829855 -63.125 63.56640625 C-53.32894495 63.5483988 -43.9933321 67.05074352 -37 74 C-30 82.5629771 -30 82.5629771 -30 87 C-29.34 86.67 -28.68 86.34 -28 86 C-32.87371326 75.31532093 -39.10087274 68.44352345 -50.25 64.25 C-54.9674062 62.77374876 -59.67576441 62.51350982 -64.59375 62.30859375 C-65.3878125 62.20675781 -66.181875 62.10492188 -67 62 C-67.33 61.34 -67.66 60.68 -68 60 C-66.5625 57.5 -66.5625 57.5 -64 55 C-55.18897144 52.99015234 -45.51539979 57.21270557 -38.08984375 61.63671875 C-30.06621623 66.87082343 -23.86151124 73.96266625 -20.98828125 83.28125 C-20.49908203 84.62703125 -20.49908203 84.62703125 -20 86 C-19.01 86.33 -18.02 86.66 -17 87 C-23.74825296 71.02515338 -30.88169182 61.93562591 -47 55 C-53.10383821 52.78543054 -59.56997599 52.44915609 -66 52 C-65.6875 49.625 -65.6875 49.625 -65 47 C-60.6142378 44.07615853 -57.21283601 44.60106618 -52.2265625 45.5 C-45.25781765 47.07647698 -39.2262145 49.51497285 -33 53 C-33.33 52.67 -33.66 52.34 -34 52 C-36.4294516 48.3558226 -36.16179575 46.28758728 -36 42 C-34.02 41.505 -34.02 41.505 -32 41 C-32.474375 40.54625 -32.94875 40.0925 -33.4375 39.625 C-36.60689952 36.3288245 -36.08177985 33.41611178 -36 29 C-35.01 28.67 -34.02 28.34 -33 28 C-33.495 27.319375 -33.99 26.63875 -34.5 25.9375 C-36.30365111 22.40534991 -36.23021353 19.91363009 -36 16 C-33.36 16.33 -30.72 16.66 -28 17 C-27.90203125 16.32453125 -27.8040625 15.6490625 -27.703125 14.953125 C-26.21792619 6.09314587 -26.21792619 6.09314587 -22 3 C-19.97153901 4.95851406 -18.17443358 6.71758372 -16.6875 9.125 C-14.2332935 11.85189611 -11.49263348 12.15918083 -8 13 C-7.505 13.495 -7.505 13.495 -7 14 C-6.96132812 12.98679687 -6.96132812 12.98679687 -6.921875 11.953125 C-6.45541726 4.61701694 -6.45541726 4.61701694 -4.0625 1.375 C-2 0 -2 0 0 0 Z M-18 17 C-18.45375 17.825 -18.9075 18.65 -19.375 19.5 C-19.91125 20.325 -20.4475 21.15 -21 22 C-21.66 22 -22.32 22 -23 22 C-23 24.64 -23 27.28 -23 30 C-24.98 30.99 -24.98 30.99 -27 32 C-26.01 32.33 -25.02 32.66 -24 33 C-23.34 36.63 -22.68 40.26 -22 44 C-23.98 43.67 -25.96 43.34 -28 43 C-27.195625 44.03125 -26.39125 45.0625 -25.5625 46.125 C-23.22200704 49.37127696 -22.29641289 51.94902383 -22 56 C-24.31 56 -26.62 56 -29 56 C-28.34 56.598125 -27.68 57.19625 -27 57.8125 C-19.96936973 64.88319084 -12.46950742 74.30951931 -11.75 84.5625 C-11.8325 85.366875 -11.915 86.17125 -12 87 C-11.34 87 -10.68 87 -10 87 C-8.72080177 85.34377788 -8.72080177 85.34377788 -8 83 C-8.85578957 80.02907612 -8.85578957 80.02907612 -10.375 77 C-12.15816992 73.1857328 -13 71.27702612 -13 67 C-11.35 66.34 -9.7 65.68 -8 65 C-7.34 66.32 -6.68 67.64 -6 69 C-5.67 67.68 -5.34 66.36 -5 65 C-6.0725 64.608125 -7.145 64.21625 -8.25 63.8125 C-11.92498433 62.22050274 -13.89092145 60.48809144 -16 57 C-16.75 53.6875 -16.75 53.6875 -17 51 C-14.525 50.505 -14.525 50.505 -12 50 C-12.33 49.34 -12.66 48.68 -13 48 C-13.66 48 -14.32 48 -15 48 C-15.33 44.7 -15.66 41.4 -16 38 C-14.68 37.34 -13.36 36.68 -12 36 C-13.32 35.34 -14.64 34.68 -16 34 C-16 31.03 -16 28.06 -16 25 C-14.02 25 -12.04 25 -10 25 C-10.95421808 23.85073734 -11.91352045 22.70569459 -12.875 21.5625 C-13.40867187 20.92441406 -13.94234375 20.28632812 -14.4921875 19.62890625 C-15.9222757 17.89194996 -15.9222757 17.89194996 -18 17 Z M-3 19 C-3 20.98 -3 22.96 -3 25 C-4.98 25.99 -4.98 25.99 -7 27 C-6.525625 27.70125 -6.05125 28.4025 -5.5625 29.125 C-3.91260143 32.16081337 -3.39631536 34.59168786 -3 38 C-4.65 38.33 -6.3 38.66 -8 39 C-7.34 39.33 -6.68 39.66 -6 40 C-4.05649073 43.88701855 -3.50459614 47.71093278 -3 52 C-4.98 51.67 -6.96 51.34 -9 51 C-8.47599609 51.67095703 -8.47599609 51.67095703 -7.94140625 52.35546875 C-3.25225541 58.58553035 -3.25225541 58.58553035 -3 63 C-3.33 63.66 -3.66 64.32 -4 65 C-2.35 65 -0.7 65 1 65 C0.9175 63.96875 0.835 62.9375 0.75 61.875 C1.03807561 57.40982801 2.28644717 55.47673956 5 52 C3.68 51.67 2.36 51.34 1 51 C1.45822468 47.53058454 1.89131683 44.32604951 3 41 C3.66 41 4.32 41 5 41 C5 40.34 5 39.68 5 39 C3.68 38.67 2.36 38.34 1 38 C0.75 35.25 0.75 35.25 1 32 C3 29.75 3 29.75 5 28 C5 27.34 5 26.68 5 26 C3.35 26 1.7 26 0 26 C0.33 23.36 0.66 20.72 1 18 C-0.36893239 17.94729537 -0.36893239 17.94729537 -3 19 Z M2 65 C2.66 66.32 3.32 67.64 4 69 C4.33 68.01 4.66 67.02 5 66 C4.01 65.67 3.02 65.34 2 65 Z M-2 85 C-1.34 85.66 -0.68 86.32 0 87 C0 86.34 0 85.68 0 85 C-0.66 85 -1.32 85 -2 85 Z " fill="#E69522" transform="translate(114,51)"/>
<path d="M0 0 C15.07540621 3.41037467 26.74672534 10.93276803 35.53125 23.75390625 C41.28305617 33.07077201 41.28305617 33.07077201 41.1640625 38.1875 C41.26622988 41.96769309 43.70998284 43.79467687 46.2265625 46.5 C43.5865625 46.83 40.9465625 47.16 38.2265625 47.5 C38.5565625 48.16 38.8865625 48.82 39.2265625 49.5 C38.23046875 51.1640625 38.23046875 51.1640625 36.7890625 53.125 C34.49282687 56.64799165 33.93629455 58.81583951 34.2421875 63.08984375 C34.1956734 70.2646443 32.06698854 77.94232074 29.2265625 84.5 C26.2565625 83.51 26.2565625 83.51 23.2265625 82.5 C23.40832031 81.51773438 23.40832031 81.51773438 23.59375 80.515625 C23.94770808 78.58791487 24.29766096 76.65946685 24.64453125 74.73046875 C25.03470019 72.5649002 25.43323407 70.40082316 25.83984375 68.23828125 C26.02933594 67.19027344 26.21882813 66.14226562 26.4140625 65.0625 C26.59324219 64.09441406 26.77242187 63.12632812 26.95703125 62.12890625 C27.38922484 59.55172525 27.38922484 59.55172525 26.59375 57.35546875 C26.47257812 56.74316406 26.35140625 56.13085938 26.2265625 55.5 C27.44140625 53.796875 27.44140625 53.796875 29.1640625 52.25 C29.72996094 51.72921875 30.29585937 51.2084375 30.87890625 50.671875 C31.54599609 50.09179688 31.54599609 50.09179688 32.2265625 49.5 C29.5865625 49.17 26.9465625 48.84 24.2265625 48.5 C24.5565625 49.49 24.8865625 50.48 25.2265625 51.5 C25.63149195 57.47270945 24.9296389 62.95658499 23.8515625 68.8125 C23.72555664 69.50625732 23.59955078 70.20001465 23.46972656 70.91479492 C22.79345841 74.38762583 22.03530922 77.4408588 20.2265625 80.5 C18.2465625 79.51 16.2665625 78.52 14.2265625 77.5 C14.443125 76.64019531 14.6596875 75.78039062 14.8828125 74.89453125 C16.74862888 66.97344969 18.69919407 58.64005795 17.2265625 50.5 C15.93415022 49.12696465 14.60505353 47.78659163 13.2265625 46.5 C13.5359375 45.13875 13.5359375 45.13875 13.8515625 43.75 C14.28070412 40.03077261 13.91064789 39.40862593 11.8515625 36.4375 C4.65336069 27.84238688 -3.99703672 26.52705384 -14.7734375 25.5 C-15.4609375 23.6875 -15.4609375 23.6875 -15.7734375 21.5 C-14.33668894 19.41576936 -13.37148527 18.63829855 -10.8984375 18.06640625 C-1.10238245 18.0483988 8.2332304 21.55074352 15.2265625 28.5 C22.2265625 37.0629771 22.2265625 37.0629771 22.2265625 41.5 C22.8865625 41.17 23.5465625 40.84 24.2265625 40.5 C19.35284924 29.81532093 13.12568976 22.94352345 1.9765625 18.75 C-2.7408437 17.27374876 -7.44920191 17.01350982 -12.3671875 16.80859375 C-13.16125 16.70675781 -13.9553125 16.60492188 -14.7734375 16.5 C-15.1034375 15.84 -15.4334375 15.18 -15.7734375 14.5 C-14.3359375 12 -14.3359375 12 -11.7734375 9.5 C-2.96240894 7.49015234 6.71116271 11.71270557 14.13671875 16.13671875 C22.16034627 21.37082343 28.36505126 28.46266625 31.23828125 37.78125 C31.72748047 39.12703125 31.72748047 39.12703125 32.2265625 40.5 C33.2165625 40.83 34.2065625 41.16 35.2265625 41.5 C28.47830954 25.52515338 21.34487068 16.43562591 5.2265625 9.5 C-0.87727571 7.28543054 -7.34341349 6.94915609 -13.7734375 6.5 C-13.4609375 4.125 -13.4609375 4.125 -12.7734375 1.5 C-8.3876753 -1.42384147 -4.98627351 -0.89893382 0 0 Z " fill="#075E33" transform="translate(61.7734375,96.5)"/>
<path d="M0 0 C0.33 0 0.66 0 1 0 C1 1.98 1 3.96 1 6 C1.763125 5.649375 2.52625 5.29875 3.3125 4.9375 C6 4 6 4 9 5 C9 5.33 9 5.66 9 6 C10.32 6 11.64 6 13 6 C13.95892499 8.58909747 14.0552238 9.81592068 13.25 12.5 C12.04232114 14.91535773 10.70248726 16.91058382 9 19 C10.32 19 11.64 19 13 19 C14 22 14 22 12.8125 25.4375 C11.14209341 28.72071296 9.8800959 30.74992508 7 33 C6.01 33 5.02 33 4 33 C4.969375 33.433125 5.93875 33.86625 6.9375 34.3125 C10 36 10 36 11 39 C10.2578125 40.83203125 10.2578125 40.83203125 9.125 42.8125 C7.15701629 46.25991203 5.83942995 48.97601716 6 53 C8.91710349 56.78474197 12.67480391 59.77451424 16.26367188 62.90234375 C21.76894318 67.97285982 21.76894318 67.97285982 22.45385742 71.01757812 C22.41418911 73.01705572 22.20711827 75.01088305 22 77 C22.41097002 79.59505596 22.88949123 82.18038949 23.4375 84.75 C23.70433594 86.02359375 23.97117188 87.2971875 24.24609375 88.609375 C24.7964992 91.0847736 25.36178286 93.54627195 26 96 C23 98 23 98 19 98 C16.18452711 89.02977242 14 80.47001108 14 71 C12.55251926 69.40891998 11.04224526 67.87440511 9.5 66.375 C8.6646875 65.55773437 7.829375 64.74046875 6.96875 63.8984375 C6.3190625 63.27195313 5.669375 62.64546875 5 62 C3.515 62.495 3.515 62.495 2 63 C2.33 63.99 2.66 64.98 3 66 C3.02820684 68.72287633 2.99859637 71.41323014 2.9140625 74.1328125 C2.89282318 74.9252536 2.87158386 75.7176947 2.84970093 76.53414917 C2.8034851 78.20692325 2.75456061 79.87962438 2.703125 81.55224609 C2.62509364 84.12191637 2.55804733 86.69171088 2.4921875 89.26171875 C2.44596945 90.8854355 2.39911637 92.50913432 2.3515625 94.1328125 C2.33171295 94.90569611 2.3118634 95.67857971 2.29141235 96.47488403 C2.11508578 101.88491422 2.11508578 101.88491422 1 103 C-2.5 103.125 -2.5 103.125 -6 103 C-7 102 -7 102 -7.11352539 98.30639648 C-7.11336624 96.66128708 -7.10766988 95.01617269 -7.09765625 93.37109375 C-7.0962413 92.50686295 -7.09482635 91.64263214 -7.09336853 90.75221252 C-7.08775239 87.98060708 -7.07519719 85.2090812 -7.0625 82.4375 C-7.05748708 80.5631522 -7.05292381 78.68880315 -7.04882812 76.81445312 C-7.03777772 72.20960456 -7.0205023 67.60481579 -7 63 C-7.99 63.495 -7.99 63.495 -9 64 C-8.96519531 64.74121094 -8.93039063 65.48242188 -8.89453125 66.24609375 C-8.72173692 72.96861587 -9.1634652 79.25914689 -10.3125 85.875 C-10.43020752 86.5755249 -10.54791504 87.2760498 -10.66918945 87.99780273 C-11.53748548 92.67815719 -12.98900681 96.68509584 -15 101 C-16.98 100.67 -18.96 100.34 -21 100 C-20.70956145 98.37478005 -20.41756108 96.74983921 -20.125 95.125 C-19.94453125 94.11953125 -19.7640625 93.1140625 -19.578125 92.078125 C-19.06183266 89.32921713 -18.47620466 86.60618689 -17.875 83.875 C-16.92019272 79.19793623 -16.82498241 74.75464458 -17 70 C-17 67 -17 67 -15.9375 64.9375 C-15.628125 64.298125 -15.31875 63.65875 -15 63 C-15.33 62.34 -15.66 61.68 -16 61 C-11.545 60.505 -11.545 60.505 -7 60 C-7.680625 59.4225 -8.36125 58.845 -9.0625 58.25 C-10.0215625 57.13625 -10.0215625 57.13625 -11 56 C-10.73703125 55.12601563 -10.73703125 55.12601563 -10.46875 54.234375 C-9.77777395 50.94072249 -11.04746516 49.01362567 -12.4375 46 C-14.18296738 42.19516648 -15 40.25067146 -15 36 C-12 34 -12 34 -9 34 C-8.67 34.66 -8.34 35.32 -8 36 C-8 35.34 -8 34.68 -8 34 C-8.721875 33.79375 -9.44375 33.5875 -10.1875 33.375 C-13.93131594 31.54468999 -15.6826282 29.44295239 -18 26 C-18.3125 22.625 -18.3125 22.625 -18 20 C-16.68 19.67 -15.36 19.34 -14 19 C-14 19.66 -14 20.32 -14 21 C-14.66 21.33 -15.32 21.66 -16 22 C-16.33 22.99 -16.66 23.98 -17 25 C-16.34 25 -15.68 25 -15 25 C-14.34 25.99 -13.68 26.98 -13 28 C-12.34 28.33 -11.68 28.66 -11 29 C-10.34 29.66 -9.68 30.32 -9 31 C-8.01 31.33 -7.02 31.66 -6 32 C-6.33 30.906875 -6.66 29.81375 -7 28.6875 C-8 25 -8 25 -8 22 C-4.7089159 25.60957611 -3.45336079 28.12637153 -3 33 C-2.34 33 -1.68 33 -1 33 C-1.0825 32.113125 -1.165 31.22625 -1.25 30.3125 C-0.94791837 26.30991841 0.29727467 24.87164566 3 22 C1.68 21.34 0.36 20.68 -1 20 C-0.25 13.375 -0.25 13.375 2 10 C2.66 10 3.32 10 4 10 C4 9.34 4 8.68 4 8 C1.525 7.505 1.525 7.505 -1 7 C-1.04254356 5.00045254 -1.04080783 2.99958364 -1 1 C-0.67 0.67 -0.34 0.34 0 0 Z M1 34 C1.66 35.32 2.32 36.64 3 38 C3.33 37.01 3.66 36.02 4 35 C3.01 34.67 2.02 34.34 1 34 Z M-3 54 C-2.34 54.66 -1.68 55.32 -1 56 C-1 55.34 -1 54.68 -1 54 C-1.66 54 -2.32 54 -3 54 Z " fill="#EE9517" transform="translate(115,82)"/>
<path d="M0 0 C3 2.5 3 2.5 5 5 C2.19988577 7.80011423 0.03691057 7.44850832 -3.875 7.8125 C-13.96489235 8.95358261 -22.46321307 12.05822256 -30 19 C-30.66 19 -31.32 19 -32 19 C-32 19.66 -32 20.32 -32 21 C-32.66 21 -33.32 21 -34 21 C-34.268125 21.54785156 -34.53625 22.09570312 -34.8125 22.66015625 C-36.63069287 26.24271391 -38.60953066 29.73563137 -40.5625 33.24609375 C-41.88934744 35.78801616 -42.98815609 38.31958655 -44 41 C-43.01 41.33 -42.02 41.66 -41 42 C-40.9175 41.175 -40.835 40.35 -40.75 39.5 C-38.59627316 29.44927475 -32.27744533 22.00210935 -23.9375 16.25 C-15.65573355 11.269517 -6.63797732 7.95237112 3 10 C4.9375 11.375 4.9375 11.375 6 13 C6 13.99 6 14.98 6 16 C4.53240234 16.14695312 4.53240234 16.14695312 3.03515625 16.296875 C-4.549821 17.16202481 -11.2824297 18.15936382 -18 22 C-19.051875 22.598125 -20.10375 23.19625 -21.1875 23.8125 C-27.30622731 28.57151013 -30.80779724 34.00170932 -34 41 C-32.515 41.495 -32.515 41.495 -31 42 C-30.9175 41.29875 -30.835 40.5975 -30.75 39.875 C-28.82110167 32.48088972 -23.03748759 27.33886723 -17 23 C-10.63432475 19.67797123 -3.19950061 17.43611631 4 19 C6 22 6 22 5.625 24.1875 C5.41875 24.785625 5.2125 25.38375 5 26 C3.98292969 26.02126953 3.98292969 26.02126953 2.9453125 26.04296875 C-5.75281857 26.48871785 -12.33256685 28.80074981 -18.9375 34.5625 C-20.71175406 36.6593457 -22.41934058 38.75379977 -24 41 C-22.515 43.475 -22.515 43.475 -21 46 C-22.3125 47.5 -22.3125 47.5 -24 49 C-24.99 49 -25.98 49 -27 49 C-26.55883637 58.79847636 -25.91433287 68.35399262 -24 78 C-27 80 -27 80 -30 80 C-30.483059 78.60550891 -30.96125517 77.20933293 -31.4375 75.8125 C-31.70433594 75.03519531 -31.97117188 74.25789063 -32.24609375 73.45703125 C-33.93780899 67.94361732 -34.12485779 62.91002669 -34.0625 57.1875 C-34.05798828 56.39923828 -34.05347656 55.61097656 -34.04882812 54.79882812 C-34.03711312 52.86585239 -34.01917998 50.93291607 -34 49 C-35.8871875 49.07347656 -35.8871875 49.07347656 -37.8125 49.1484375 C-41.50371036 49.29215266 -41.86491233 49.10694441 -45 46.625 C-47 44 -47 44 -47 42 C-48.32 41.34 -49.64 40.68 -51 40 C-51 38.35 -51 36.7 -51 35 C-50.34 35 -49.68 35 -49 35 C-48.8865625 34.27296875 -48.773125 33.5459375 -48.65625 32.796875 C-46.17937686 22.24067759 -37.18394122 13.48605475 -28.375 7.75 C-20.40875546 3.29388196 -9.25646192 -1.71415961 0 0 Z " fill="#075B32" transform="translate(173,96)"/>
<path d="M0 0 C1.32 0 2.64 0 4 0 C3.814375 1.051875 3.814375 1.051875 3.625 2.125 C4.12566936 5.9634651 5.875688 7.0909827 8.78515625 9.47265625 C9.18605469 9.97667969 9.58695313 10.48070312 10 11 C9.68359375 13.18359375 9.68359375 13.18359375 9 15 C5.63408134 13.55746343 3.48952921 11.66735273 1 9 C0.01 9.495 0.01 9.495 -1 10 C-0.67 11.65 -0.34 13.3 0 15 C1.98 15 3.96 15 6 15 C6 16.32 6 17.64 6 19 C3.03 19.495 3.03 19.495 0 20 C0.66 20.33 1.32 20.66 2 21 C1.49396008 23.16874252 1.00016187 24.99967627 0 27 C-2.0625 27.625 -2.0625 27.625 -4 28 C-4.33 30.31 -4.66 32.62 -5 35 C-6.32 35 -7.64 35 -9 35 C-9.495 34.505 -9.495 34.505 -10 34 C-10.99 36.475 -10.99 36.475 -12 39 C-10.68 39.33 -9.36 39.66 -8 40 C-9.55808656 49.59453303 -9.55808656 49.59453303 -14 53 C-13.67 53.66 -13.34 54.32 -13 55 C-12.86642547 58.67329964 -12.8328432 61.49852959 -14 65 C-15.75032844 64.85816304 -17.50025534 64.71136571 -19.25 64.5625 C-20.71179688 64.44068359 -20.71179688 64.44068359 -22.203125 64.31640625 C-24.56461753 64.04925416 -26.71901065 63.64628032 -29 63 C-29.32150943 58.90075477 -29.41384837 56.65644914 -27.1875 53.125 C-25 51 -25 51 -22 50 C-23.32 49.34 -24.64 48.68 -26 48 C-25.4140625 41.84765625 -25.4140625 41.84765625 -25 40 C-24.01 39.505 -24.01 39.505 -23 39 C-22.814375 37.6078125 -22.814375 37.6078125 -22.625 36.1875 C-21.89588665 32.46902191 -21.01327251 31.23843101 -18 29 C-16.68 29 -15.36 29 -14 29 C-14.495 28.5875 -14.99 28.175 -15.5 27.75 C-17 26 -17 26 -17 22 C-12.91556885 20.46833832 -9.20544343 21.36918348 -5 22 C-7.31 20.02 -9.62 18.04 -12 16 C-10.03198508 12.26077165 -8.70253733 10.85126866 -5 9 C-4.63451555 7.67511887 -4.3062434 6.33981486 -4 5 C-2.1875 2.25 -2.1875 2.25 0 0 Z M-6 13 C-6 13.99 -6 14.98 -6 16 C-5.01 15.67 -4.02 15.34 -3 15 C-3.33 14.34 -3.66 13.68 -4 13 C-4.66 13 -5.32 13 -6 13 Z M-11 26 C-10.34 26.66 -9.68 27.32 -9 28 C-8.67 27.34 -8.34 26.68 -8 26 C-8.99 26 -9.98 26 -11 26 Z M-18 34 C-17.67 34.99 -17.34 35.98 -17 37 C-16.34 37 -15.68 37 -15 37 C-15 36.01 -15 35.02 -15 34 C-15.99 34 -16.98 34 -18 34 Z M-21 40 C-21.33 41.65 -21.66 43.3 -22 45 C-21.01 45.495 -21.01 45.495 -20 46 C-19.896875 45.360625 -19.79375 44.72125 -19.6875 44.0625 C-19.460625 43.381875 -19.23375 42.70125 -19 42 C-18.01 41.67 -17.02 41.34 -16 41 C-17.65 40.67 -19.3 40.34 -21 40 Z M-16 42 C-16 43.65 -16 45.3 -16 47 C-15.01 47.495 -15.01 47.495 -14 48 C-13.67 46.35 -13.34 44.7 -13 43 C-13.99 42.67 -14.98 42.34 -16 42 Z M-23 55 C-23.66 56.32 -24.32 57.64 -25 59 C-22.36 59.66 -19.72 60.32 -17 61 C-17.33 59.35 -17.66 57.7 -18 56 C-19.65 55.67 -21.3 55.34 -23 55 Z " fill="#020202" transform="translate(40,46)"/>
<path d="M0 0 C1.32 0.33 2.64 0.66 4 1 C2.91768522 3.52540116 1.93144376 5.06647878 -0.0625 7 C-2.07607222 9.07852616 -2.59824094 10.18768658 -3 13 C2.60332217 10.90408851 2.60332217 10.90408851 7 7 C7.99 7.33 8.98 7.66 10 8 C9.67 9.32 9.34 10.64 9 12 C11.475 12.495 11.475 12.495 14 13 C12.88333826 16.34998521 12.25305075 16.79340222 9.4375 18.6875 C8.79683594 19.12449219 8.15617188 19.56148437 7.49609375 20.01171875 C6.75552734 20.50091797 6.75552734 20.50091797 6 21 C6.66 21.99 7.32 22.98 8 24 C11.66887552 21.48929246 11.66887552 21.48929246 13.8125 17.75 C13.9053125 16.88375 13.9053125 16.88375 14 16 C14.66 16 15.32 16 16 16 C18.46220994 19.28294659 20.11341866 22.01038399 21 26 C21.66 26.33 22.32 26.66 23 27 C23 27.99 23 28.98 23 30 C20.03 31.65 17.06 33.3 14 35 C14 35.66 14 36.32 14 37 C18.02992782 36.44687265 22.02022924 35.8441938 26 35 C26 36.32 26 37.64 26 39 C25.67 39.33 25.34 39.66 25 40 C25.9590625 40.2784375 25.9590625 40.2784375 26.9375 40.5625 C29 42 29 42 29.75 45.4375 C29.90324325 47.62121637 30 49.81091327 30 52 C30.66 52.66 31.32 53.32 32 54 C32.125 57.625 32.125 57.625 32 61 C31.01 61 30.02 61 29 61 C28.505 59.02 28.505 59.02 28 57 C27.34 57 26.68 57 26 57 C26 58.65 26 60.3 26 62 C24.68 61.67 23.36 61.34 22 61 C22 60.01 22 59.02 22 58 C21.34 58 20.68 58 20 58 C20.33 59.32 20.66 60.64 21 62 C20.01 62.66 19.02 63.32 18 64 C16.04832271 61.07248407 15.63446616 59.9152711 15.25 56.5625 C15.15203125 55.80066406 15.0540625 55.03882813 14.953125 54.25390625 C15.00688336 51.66902511 15.69491163 50.20359151 17 48 C15.68 47.67 14.36 47.34 13 47 C13.268125 46.443125 13.53625 45.88625 13.8125 45.3125 C13.9053125 44.1678125 13.9053125 44.1678125 14 43 C13.175 42.236875 12.35 41.47375 11.5 40.6875 C9 38 9 38 8.875 34.375 C10 31 10 31 12.375 29.0625 C15 28 15 28 18 28 C17.67 27.34 17.34 26.68 17 26 C14.05309317 26.40929261 12.30364956 26.76076096 9.9375 28.625 C8 30 8 30 6 30.125 C2.77934022 28.31337887 1.29865082 25.39875472 0 22 C0.25 19.5625 0.25 19.5625 1 18 C0.05125 17.71125 -0.8975 17.4225 -1.875 17.125 C-5 16 -5 16 -7 14 C-7.5625 11.375 -7.5625 11.375 -7 8 C-4.90380782 5.09355897 -2.52480982 2.5376915 0 0 Z M24 45 C23.67 45.99 23.34 46.98 23 48 C23.99 47.67 24.98 47.34 26 47 C25.34 46.34 24.68 45.68 24 45 Z M20 51 C19.67 51.99 19.34 52.98 19 54 C20.32 53.34 21.64 52.68 23 52 C22.01 51.67 21.02 51.34 20 51 Z " fill="#020202" transform="translate(182,46)"/>
<path d="M0 0 C2.5 -0.5 2.5 -0.5 6 0 C9.01020496 2.36284905 11.62553014 4.99876652 14 8 C14 8.66 14 9.32 14 10 C13.34 10 12.68 10 12 10 C12.33 10.99 12.66 11.98 13 13 C13.02820684 15.72287633 12.99859637 18.41323014 12.9140625 21.1328125 C12.89282318 21.9252536 12.87158386 22.7176947 12.84970093 23.53414917 C12.8034851 25.20692325 12.75456061 26.87962438 12.703125 28.55224609 C12.62509364 31.12191637 12.55804733 33.69171088 12.4921875 36.26171875 C12.44596945 37.8854355 12.39911637 39.50913432 12.3515625 41.1328125 C12.33171295 41.90569611 12.3118634 42.67857971 12.29141235 43.47488403 C12.11508578 48.88491422 12.11508578 48.88491422 11 50 C7.5 50.125 7.5 50.125 4 50 C3 49 3 49 2.88647461 45.30639648 C2.88663376 43.66128708 2.89233012 42.01617269 2.90234375 40.37109375 C2.9037587 39.50686295 2.90517365 38.64263214 2.90663147 37.75221252 C2.91224761 34.98060708 2.92480281 32.2090812 2.9375 29.4375 C2.94251292 27.5631522 2.94707619 25.68880315 2.95117188 23.81445312 C2.96222228 19.20960456 2.9794977 14.60481579 3 10 C2.01 10.495 2.01 10.495 1 11 C1.03480469 11.74121094 1.06960937 12.48242188 1.10546875 13.24609375 C1.27826308 19.96861587 0.8365348 26.25914689 -0.3125 32.875 C-0.43020752 33.5755249 -0.54791504 34.2760498 -0.66918945 34.99780273 C-1.53748548 39.67815719 -2.98900681 43.68509584 -5 48 C-6.98 47.67 -8.96 47.34 -11 47 C-10.70956145 45.37478005 -10.41756108 43.74983921 -10.125 42.125 C-9.94453125 41.11953125 -9.7640625 40.1140625 -9.578125 39.078125 C-9.06183266 36.32921713 -8.47620466 33.60618689 -7.875 30.875 C-6.92019272 26.19793623 -6.82498241 21.75464458 -7 17 C-7 14 -7 14 -5.9375 11.9375 C-5.628125 11.298125 -5.31875 10.65875 -5 10 C-5.33 9.34 -5.66 8.68 -6 8 C-1.545 7.505 -1.545 7.505 3 7 C1.68 5.68 0.36 4.36 -1 3 C-0.67 2.01 -0.34 1.02 0 0 Z " fill="#065A30" transform="translate(105,135)"/>
<path d="M0 0 C0 0.99 0 1.98 0 3 C-0.66 3.33 -1.32 3.66 -2 4 C-1.505 9.94 -1.505 9.94 -1 16 C-2.32 15.67 -3.64 15.34 -5 15 C-5.66 11.7 -6.32 8.4 -7 5 C-7.99 5.66 -8.98 6.32 -10 7 C-9.484375 8.0725 -8.96875 9.145 -8.4375 10.25 C-7.36759718 12.71477612 -6.96427218 13.72132303 -7.3125 16.4375 C-7.539375 16.953125 -7.76625 17.46875 -8 18 C-13.75 16.125 -13.75 16.125 -16 15 C-15.67 16.65 -15.34 18.3 -15 20 C-16.96372096 21.23280745 -18.92932956 22.46177751 -20.90234375 23.6796875 C-22.55001215 24.71676743 -24.15845892 25.81618697 -25.75 26.9375 C-28 28 -28 28 -30.3125 27.1875 C-30.869375 26.795625 -31.42625 26.40375 -32 26 C-32 26.66 -32 27.32 -32 28 C-32.31478446 29.33783393 -32.64587656 30.67203709 -33 32 C-35.16874252 31.49396008 -36.99967627 31.00016187 -39 30 C-38.67 31.98 -38.34 33.96 -38 36 C-40.74159541 35.64776076 -41.75717901 35.30212174 -43.51953125 33.109375 C-43.94621094 32.33078125 -44.37289062 31.5521875 -44.8125 30.75 C-45.25207031 29.98171875 -45.69164062 29.2134375 -46.14453125 28.421875 C-47.16544482 25.53161739 -46.83982775 23.90590706 -46 21 C-43.61435923 21.57584432 -41.33317216 22.22227595 -39 23 C-39.33 20.69 -39.66 18.38 -40 16 C-36.85375007 15.73781251 -35.38162983 15.75245633 -32.6875 17.5 C-32.130625 17.995 -31.57375 18.49 -31 19 C-31.66 18.01 -32.32 17.02 -33 16 C-32.875 13.4375 -32.875 13.4375 -32 11 C-29.43689172 9.2058242 -28.16880694 9 -25 9 C-25.50603992 11.16874252 -25.99983813 12.99967627 -27 15 C-25.68 14.34 -24.36 13.68 -23 13 C-23.33 11.02 -23.66 9.04 -24 7 C-20.28111761 7.50712033 -17.26545761 8.11608215 -14 10 C-14.66 8.02 -15.32 6.04 -16 4 C-5.62642369 -0.59225513 -5.62642369 -0.59225513 0 0 Z M-22 16 C-22 16.66 -22 17.32 -22 18 C-22.99 18.33 -23.98 18.66 -25 19 C-24.67 19.66 -24.34 20.32 -24 21 C-22.68 20.01 -21.36 19.02 -20 18 C-20.66 17.34 -21.32 16.68 -22 16 Z " fill="#020202" transform="translate(92,20)"/>
<path d="M0 0 C4.9227707 1.45859873 4.9227707 1.45859873 6.375 4 C6.0625 6.6875 6.0625 6.6875 5.375 9 C6.695 7.68 8.015 6.36 9.375 5 C12.3469385 6.12451727 14.70940687 7.22293791 17.375 9 C17.705 9.99 18.035 10.98 18.375 12 C19.695 12 21.015 12 22.375 12 C22.045 13.65 21.715 15.3 21.375 17 C22.2825 16.79375 23.19 16.5875 24.125 16.375 C27.375 16 27.375 16 29.6875 16.5625 C32.18535694 18.69030406 32.09985992 20.83588906 32.375 24 C31.055 23.67 29.735 23.34 28.375 23 C28.375 22.34 28.375 21.68 28.375 21 C26.725 21.33 25.075 21.66 23.375 22 C23.045 23.65 22.715 25.3 22.375 27 C23.695 27.66 25.015 28.32 26.375 29 C25.88 30.485 25.88 30.485 25.375 32 C22.5625 31.9375 22.5625 31.9375 19.375 31 C17.8823959 28.72555566 17.23257989 26.62038301 16.375 24 C15.50875 24.3403125 15.50875 24.3403125 14.625 24.6875 C12.375 25 12.375 25 10.1875 23.8125 C8.21718661 21.84218661 7.75007382 20.71928517 7.375 18 C5.395 18.99 5.395 18.99 3.375 20 C3.045 18.68 2.715 17.36 2.375 16 C1.4675 16.20625 0.56 16.4125 -0.375 16.625 C-3.74536846 17.01388867 -4.90661375 16.91293847 -7.625 15 C-9.23999021 11.77001957 -9.20476204 8.49190008 -8.625 5 C-5.9573351 1.03892181 -4.82598436 0 0 0 Z M-4.625 6 C-4.8752157 9.08365871 -4.8752157 9.08365871 -4.625 12 C-3.305 12.33 -1.985 12.66 -0.625 13 C-0.295 12.34 0.035 11.68 0.375 11 C-0.285 10.34 -0.945 9.68 -1.625 9 C-1.625 8.34 -1.625 7.68 -1.625 7 C0.025 7.33 1.675 7.66 3.375 8 C2.01176257 5.9600281 2.01176257 5.9600281 0.375 4 C-1.94857511 3.81509993 -1.94857511 3.81509993 -4.625 6 Z M10.375 11 C10.375 11.66 10.375 12.32 10.375 13 C11.365 13 12.355 13 13.375 13 C13.375 12.34 13.375 11.68 13.375 11 C12.385 11 11.395 11 10.375 11 Z M12.375 17 C12.705 18.32 13.035 19.64 13.375 21 C14.035 19.68 14.695 18.36 15.375 17 C14.385 17 13.395 17 12.375 17 Z " fill="#010101" transform="translate(148.625,23)"/>
<path d="M0 0 C2.4765625 -0.46875 2.4765625 -0.46875 6 0 C9.13805991 2.15655218 11.71556427 4.7876641 14.375 7.5 C15.11105469 8.19609375 15.84710938 8.8921875 16.60546875 9.609375 C21.74247418 14.75591106 21.74247418 14.75591106 22.4230957 18.04394531 C22.3869531 20.03397158 22.19378355 22.01910153 22 24 C22.41097002 26.59505596 22.88949123 29.18038949 23.4375 31.75 C23.70433594 33.02359375 23.97117188 34.2971875 24.24609375 35.609375 C24.7964992 38.0847736 25.36178286 40.54627195 26 43 C23 45 23 45 19 45 C16.18452711 36.02977242 14 27.47001108 14 18 C12.58432843 16.30528214 12.58432843 16.30528214 10.71875 14.5234375 C10.04199219 13.853125 9.36523438 13.1828125 8.66796875 12.4921875 C7.95253906 11.79351562 7.23710938 11.09484375 6.5 10.375 C5.42685547 9.31539062 5.42685547 9.31539062 4.33203125 8.234375 C2.55906071 6.48504407 0.78159989 4.74053464 -1 3 C-0.67 2.01 -0.34 1.02 0 0 Z " fill="#08532E" transform="translate(115,135)"/>
<path d="M0 0 C3.3125 0.9375 3.3125 0.9375 5.3125 2.9375 C5.9725 1.9475 6.6325 0.9575 7.3125 -0.0625 C13.4375 -0.5 13.4375 -0.5 16.3125 0.9375 C15.9825 2.2575 15.6525 3.5775 15.3125 4.9375 C13.9925 4.9375 12.6725 4.9375 11.3125 4.9375 C12.6325 5.5975 13.9525 6.2575 15.3125 6.9375 C15.3125 7.9275 15.3125 8.9175 15.3125 9.9375 C13.6625 9.9375 12.0125 9.9375 10.3125 9.9375 C10.3125 11.9175 10.3125 13.8975 10.3125 15.9375 C9.69375 15.7725 9.075 15.6075 8.4375 15.4375 C5.79493927 14.81572101 4.7626347 14.71243265 2.3125 15.9375 C-1.52364957 16.29269903 -3.83379634 16.48474594 -7.125 14.375 C-9.31771887 10.95435857 -9.31757693 8.92798721 -8.6875 4.9375 C-5.97011201 0.98493565 -4.8610516 -0.08239071 0 0 Z M-2.6875 3.9375 C-3.3475 4.5975 -4.0075 5.2575 -4.6875 5.9375 C-4.36551034 9.03676819 -4.36551034 9.03676819 -3.6875 11.9375 C-2.0375 11.9375 -0.3875 11.9375 1.3125 11.9375 C2.0003236 9.58382287 2.0003236 9.58382287 2.3125 6.9375 C1.6525 5.9475 0.9925 4.9575 0.3125 3.9375 C-0.6775 3.9375 -1.6675 3.9375 -2.6875 3.9375 Z " fill="#010101" transform="translate(106.6875,17.0625)"/>
<path d="M0 0 C2.31 0 4.62 0 7 0 C7 11.88 7 23.76 7 36 C4.69 36 2.38 36 0 36 C0 24.12 0 12.24 0 0 Z " fill="#F29413" transform="translate(109,147)"/>
<path d="M0 0 C3.36589374 1.86994097 4.87253027 2.85827144 7 6 C8.13340081 10.35239762 8.27852646 14.87026604 8.6015625 19.33984375 C9.0429091 25.40274913 10.44386458 31.12818235 12 37 C8.535 37.495 8.535 37.495 5 38 C4.34996375 35.79290017 3.70515255 33.58426108 3.0625 31.375 C2.70285156 30.14523438 2.34320313 28.91546875 1.97265625 27.6484375 C0.24854813 21.18130103 -0.13142264 15.27338389 -0.0625 8.625 C-0.05798828 7.79355469 -0.05347656 6.96210938 -0.04882812 6.10546875 C-0.03713164 4.07028103 -0.01919935 2.03513077 0 0 Z " fill="#0F5931" transform="translate(120,145)"/>
<path d="M0 0 C2.5 -0.5 2.5 -0.5 6 0 C9.01020496 2.36284905 11.62553014 4.99876652 14 8 C14 8.66 14 9.32 14 10 C13.34 10 12.68 10 12 10 C12.33 10.99 12.66 11.98 13 13 C13.02820684 15.72287633 12.99859637 18.41323014 12.9140625 21.1328125 C12.89282318 21.9252536 12.87158386 22.7176947 12.84970093 23.53414917 C12.8034851 25.20692325 12.75456061 26.87962438 12.703125 28.55224609 C12.62509364 31.12191637 12.55804733 33.69171088 12.4921875 36.26171875 C12.44596945 37.8854355 12.39911637 39.50913432 12.3515625 41.1328125 C12.33171295 41.90569611 12.3118634 42.67857971 12.29141235 43.47488403 C12.11508578 48.88491422 12.11508578 48.88491422 11 50 C7.5 50.125 7.5 50.125 4 50 C3 49 3 49 2.88647461 45.30639648 C2.88663376 43.66128708 2.89233012 42.01617269 2.90234375 40.37109375 C2.9037587 39.50686295 2.90517365 38.64263214 2.90663147 37.75221252 C2.91224761 34.98060708 2.92480281 32.2090812 2.9375 29.4375 C2.94251292 27.5631522 2.94707619 25.68880315 2.95117188 23.81445312 C2.96222228 19.20960456 2.9794977 14.60481579 3 10 C3.66 9.67 4.32 9.34 5 9 C3.02 7.02 1.04 5.04 -1 3 C-0.67 2.01 -0.34 1.02 0 0 Z M4 12 C4 23.88 4 35.76 4 48 C6.31 48 8.62 48 11 48 C11 36.12 11 24.24 11 12 C8.69 12 6.38 12 4 12 Z " fill="#BF913E" transform="translate(105,135)"/>
<path d="M0 0 C0.556875 0.350625 1.11375 0.70125 1.6875 1.0625 C4.57197167 2.23188041 6.03169666 1.76110342 9 1 C13.66666667 1 18.33333333 1 23 1 C23.97591583 4.38317487 23.85856655 6.5657338 23 10 C20.33333333 10 17.66666667 10 15 10 C14.01 10.33 13.02 10.66 12 11 C7.86320925 11.18385737 4.06271651 10.77385076 0 10 C-0.19412181 8.52168779 -0.38012131 7.04230684 -0.5625 5.5625 C-0.66691406 4.73878906 -0.77132812 3.91507813 -0.87890625 3.06640625 C-0.91886719 2.38449219 -0.95882812 1.70257813 -1 1 C-0.67 0.67 -0.34 0.34 0 0 Z M17 4 C18 6 18 6 18 6 Z M10 6 C10 6.99 10 7.98 10 9 C10.66 9 11.32 9 12 9 C11.67 8.01 11.34 7.02 11 6 C10.67 6 10.34 6 10 6 Z M20 6 C21 8 21 8 21 8 Z " fill="#030303" transform="translate(101,197)"/>
<path d="M0 0 C10.2350937 2.2350937 10.2350937 2.2350937 12 4 C12.04092937 6.33297433 12.04241723 8.66705225 12 11 C7.05251356 10.0268919 2.12099927 8.97864862 -2.8125 7.9375 C-3.69615234 7.75123047 -4.57980469 7.56496094 -5.49023438 7.37304688 C-7.66020467 6.91559368 -9.83012489 6.45790443 -12 6 C-11.6875 4.125 -11.6875 4.125 -11 2 C-7.21993028 -0.52004648 -4.36916554 -0.48309473 0 0 Z " fill="#0E4C2D" transform="translate(63,87)"/>
<path d="M0 0 C1.5 1.6875 1.5 1.6875 1.5 4.6875 C0.4378125 4.88085938 -0.624375 5.07421875 -1.71875 5.2734375 C-12.17188487 7.19327023 -12.17188487 7.19327023 -22.5 9.6875 C-22.5 7.0475 -22.5 4.4075 -22.5 1.6875 C-5.72981366 -3.00815217 -5.72981366 -3.00815217 0 0 Z " fill="#046535" transform="translate(172.5,88.3125)"/>
<path d="M0 0 C4.04964951 1.34988317 4.74190559 3.44179062 7 7 C7.7425 7.886875 8.485 8.77375 9.25 9.6875 C11 12 11 12 11 15 C11.66 15.33 12.32 15.66 13 16 C12.34 16.33 11.68 16.66 11 17 C10.67 17.99 10.34 18.98 10 20 C11.051875 19.814375 12.10375 19.62875 13.1875 19.4375 C19.14573229 18.66454014 25.05042262 19.41048395 31 20 C31 20.99 31 21.98 31 23 C27.04 22.67 23.08 22.34 19 22 C19.33 22.99 19.66 23.98 20 25 C20.06740865 26.56118428 20.08514456 28.1250252 20.0625 29.6875 C20.05347656 30.49574219 20.04445313 31.30398437 20.03515625 32.13671875 C20.02355469 32.75160156 20.01195313 33.36648437 20 34 C19.34 33.67 18.68 33.34 18 33 C18 30.03 18 27.06 18 24 C16.68 24 15.36 24 14 24 C14 27.3 14 30.6 14 34 C14.66 34.33 15.32 34.66 16 35 C15.01 37.31 14.02 39.62 13 42 C12.67 42 12.34 42 12 42 C12.04640625 40.74703125 12.0928125 39.4940625 12.140625 38.203125 C12.17814813 36.55210719 12.21454771 34.90106358 12.25 33.25 C12.28351563 32.425 12.31703125 31.6 12.3515625 30.75 C12.5277052 25.73408214 12.5277052 25.73408214 9.9453125 21.59375 C9.30335937 21.0678125 8.66140625 20.541875 8 20 C8.20625 19.0925 8.4125 18.185 8.625 17.25 C9.06798965 13.41075634 8.5504752 12.86266913 6.3125 9.875 C4.02551436 7.09223426 1.64964201 4.4458234 -1 2 C-0.67 1.34 -0.34 0.68 0 0 Z " fill="#0D5432" transform="translate(67,123)"/>
<path d="M0 0 C0.66 0 1.32 0 2 0 C2 0.99 2 1.98 2 3 C2.70125 2.505 3.4025 2.01 4.125 1.5 C7.37119719 -0.1936681 9.39340156 -0.25162315 13 0 C13.99 2.31 14.98 4.62 16 7 C14.68 7.33 13.36 7.66 12 8 C12 8.66 12 9.32 12 10 C13.65 9.67 15.3 9.34 17 9 C17 9.99 17 10.98 17 12 C15.58456585 12.19658808 14.16755969 12.38187546 12.75 12.5625 C11.96109375 12.66691406 11.1721875 12.77132812 10.359375 12.87890625 C7.99467126 13.00027349 6.2488963 12.69633257 4 12 C3.67 10.35 3.34 8.7 3 7 C2.34 7 1.68 7 1 7 C0.67 4.69 0.34 2.38 0 0 Z " fill="#F79312" transform="translate(102,118)"/>
<path d="M0 0 C0 1.32 0 2.64 0 4 C0.66 4 1.32 4 2 4 C2 5.32 2 6.64 2 8 C0.02 8 -1.96 8 -4 8 C-3.67 8.5775 -3.34 9.155 -3 9.75 C-2 12 -2 12 -2 16 C-1.34 16 -0.68 16 0 16 C0.33 17.32 0.66 18.64 1 20 C-0.65 20 -2.3 20 -4 20 C-4.33 19.01 -4.66 18.02 -5 17 C-5.99 16.67 -6.98 16.34 -8 16 C-8.125 13.625 -8.125 13.625 -8 11 C-7.34 10.34 -6.68 9.68 -6 9 C-7.0209375 7.9171875 -7.0209375 7.9171875 -8.0625 6.8125 C-10 4 -10 4 -9.75 1.1875 C-9.5025 0.465625 -9.255 -0.25625 -9 -1 C-5.23375329 -2.25541557 -3.62811066 -1.37061958 0 0 Z " fill="#F89213" transform="translate(89,85)"/>
<path d="M0 0 C1.953125 0.83984375 1.953125 0.83984375 4 2 C5.42115639 6.85561768 5.10044951 11.97752445 5 17 C3.0625 16.625 3.0625 16.625 1 16 C0.67 15.34 0.34 14.68 0 14 C-2.64 14.33 -5.28 14.66 -8 15 C-7.83423117 8.53501551 -3.99651306 4.69564198 0 0 Z M0 6 C0 7.32 0 8.64 0 10 C0.33 8.68 0.66 7.36 1 6 C0.67 6 0.34 6 0 6 Z " fill="#010101" transform="translate(134,19)"/>
<path d="M0 0 C4.62 0 9.24 0 14 0 C14.66 1.32 15.32 2.64 16 4 C15.071875 3.938125 14.14375 3.87625 13.1875 3.8125 C8.74226207 3.78528426 4.7729396 5.05381195 0.55078125 6.34375 C-2 7 -2 7 -6 7 C-6 7.66 -6 8.32 -6 9 C-6.99 9 -7.98 9 -9 9 C-9 9.66 -9 10.32 -9 11 C-9.99 11 -10.98 11 -12 11 C-12.33 11.66 -12.66 12.32 -13 13 C-13.33 11.68 -13.66 10.36 -14 9 C-12.68 8.67 -11.36 8.34 -10 8 C-10 7.34 -10 6.68 -10 6 C-9.36191406 5.81824219 -8.72382813 5.63648437 -8.06640625 5.44921875 C-7.24011719 5.19785156 -6.41382813 4.94648437 -5.5625 4.6875 C-4.32693359 4.32205078 -4.32693359 4.32205078 -3.06640625 3.94921875 C-2.04353516 3.47935547 -2.04353516 3.47935547 -1 3 C-0.67 2.01 -0.34 1.02 0 0 Z " fill="#046435" transform="translate(161,107)"/>
<path d="M0 0 C1.5 1.0625 1.5 1.0625 3 3 C3.1875 6.6875 3.1875 6.6875 3 10 C1.35 10 -0.3 10 -2 10 C-1.175 10.86625 -0.35 11.7325 0.5 12.625 C2.65865899 15.17890641 2.9876294 15.86639751 3.3125 19.375 C3.1578125 20.674375 3.1578125 20.674375 3 22 C-1.07674421 22.31974464 -3.32029296 22.43803342 -6.8125 20.1875 C-9.88320375 17.11679625 -10.97523206 15.73065427 -11.125 11.3125 C-11.08375 10.219375 -11.0425 9.12625 -11 8 C-9.35 8 -7.7 8 -6 8 C-6 8.99 -6 9.98 -6 11 C-6.66 11 -7.32 11 -8 11 C-7.64212875 13.64824722 -7.31760089 15.55535876 -5.75 17.75 C-3.55535876 19.31760089 -1.64824722 19.64212875 1 20 C0.67 18.68 0.34 17.36 0 16 C-0.66 16 -1.32 16 -2 16 C-3.25664978 13.09399739 -4 11.20395416 -4 8 C-2.02 8 -0.04 8 2 8 C2 6.68 2 5.36 2 4 C1.34 4 0.68 4 0 4 C0 2.68 0 1.36 0 0 Z " fill="#DD942D" transform="translate(89,85)"/>
<path d="M0 0 C0 0.66 0 1.32 0 2 C-0.99 2.495 -0.99 2.495 -2 3 C-2.33 3.99 -2.66 4.98 -3 6 C-2.34 6 -1.68 6 -1 6 C-0.01 7.485 -0.01 7.485 1 9 C1.66 9.33 2.32 9.66 3 10 C3.66 10.66 4.32 11.32 5 12 C5.99 12.33 6.98 12.66 8 13 C7.67 11.906875 7.34 10.81375 7 9.6875 C6 6 6 6 6 3 C9.2910841 6.60957611 10.54663921 9.12637153 11 14 C11.66 14 12.32 14 13 14 C13 12.35 13 10.7 13 9 C13.33 10.32 13.66 11.64 14 13 C16.31 13 18.62 13 21 13 C20.01 13.33 19.02 13.66 18 14 C16.7763932 16.0745356 16.7763932 16.0745356 17 19 C16.34 19.33 15.68 19.66 15 20 C14.67 19.34 14.34 18.68 14 18 C11.69 18 9.38 18 7 18 C6.67 17.01 6.34 16.02 6 15 C5.2575 14.731875 4.515 14.46375 3.75 14.1875 C-0.05795245 12.5431569 -1.70140265 10.41505892 -4 7 C-4.3125 3.625 -4.3125 3.625 -4 1 C-2 0 -2 0 0 0 Z " fill="#D29436" transform="translate(101,101)"/>
<path d="M0 0 C8.98716947 3.20157755 16.24316473 9.53167316 22 17 C21.67 17.66 21.34 18.32 21 19 C19.72689688 18.06558465 18.456612 17.12732889 17.1875 16.1875 C16.47980469 15.66542969 15.77210937 15.14335938 15.04296875 14.60546875 C13.21468607 13.16871123 11.60103312 11.68184237 10 10 C9.67 11.32 9.34 12.64 9 14 C7.2063257 12.8782037 5.4151227 11.75245517 3.625 10.625 C2.62726563 9.99851562 1.62953125 9.37203125 0.6015625 8.7265625 C-2 7 -2 7 -4 5 C2.75 5.75 2.75 5.75 5 8 C5.99 7.67 6.98 7.34 8 7 C6.6078125 6.071875 6.6078125 6.071875 5.1875 5.125 C3.125 3.75 1.0625 2.375 -1 1 C-0.67 0.67 -0.34 0.34 0 0 Z " fill="#105830" transform="translate(74,101)"/>
<path d="M0 0 C2.5 -0.5 2.5 -0.5 6 0 C9.01020496 2.36284905 11.62553014 4.99876652 14 8 C14 8.66 14 9.32 14 10 C13.34 10 12.68 10 12 10 C12.33 10.99 12.66 11.98 13 13 C12.34 13 11.68 13 11 13 C11 12.34 11 11.68 11 11 C10.319375 10.979375 9.63875 10.95875 8.9375 10.9375 C4.53084593 9.53112104 2.05237626 6.3690493 -1 3 C-0.67 2.01 -0.34 1.02 0 0 Z " fill="#1A5325" transform="translate(105,135)"/>
<path d="M0 0 C1.32 0 2.64 0 4 0 C4 0.66 4 1.32 4 2 C4.66 2 5.32 2 6 2 C6.33 1.34 6.66 0.68 7 0 C7 0.66 7 1.32 7 2 C7.66 1.835 8.32 1.67 9 1.5 C12.73099794 0.87816701 16.21873378 0.93591074 20 1 C20.33 1.99 20.66 2.98 21 4 C20.01 4 19.02 4 18 4 C18 9.61 18 15.22 18 21 C17.67 21 17.34 21 17 21 C17 15.39 17 9.78 17 4 C15.68 4 14.36 4 13 4 C13 11.26 13 18.52 13 26 C12.67 26 12.34 26 12 26 C10.82299952 21.37540756 10.88591588 16.92133538 10.9375 12.1875 C10.94201172 11.39923828 10.94652344 10.61097656 10.95117188 9.79882812 C10.96288688 7.86585239 10.98082002 5.93291607 11 4 C9.081875 4.061875 9.081875 4.061875 7.125 4.125 C4.9453125 4.1953125 4.9453125 4.1953125 3 4 C1 2 1 2 0 0 Z " fill="#0C4F2E" transform="translate(128,141)"/>
<path d="M0 0 C-0.08729843 5.32520406 -0.08729843 5.32520406 -1 8 C-4.53314591 10.09371609 -6.89506993 11 -11 11 C-11.36658354 4.52369077 -11.36658354 4.52369077 -9.6875 2.125 C-6.48758253 -0.00827831 -3.72635007 -0.10071216 0 0 Z " fill="#F49315" transform="translate(127,77)"/>
<path d="M0 0 C2.0625 0.25 2.0625 0.25 4 1 C4.33 1.66 4.66 2.32 5 3 C5.99 3 6.98 3 8 3 C8.87890625 9.15234375 8.87890625 9.15234375 9 11 C8 12 8 12 5.6875 12.3125 C3 12 3 12 0.75 10.375 C-1.3583001 7.51373558 -1.84639615 5.53288854 -2 2 C-1.34 1.34 -0.68 0.68 0 0 Z " fill="#F29717" transform="translate(100,75)"/>
<path d="M0 0 C2 2 2 2 2 6 C1.01 6 0.02 6 -1 6 C-1 6.66 -1 7.32 -1 8 C-1.66 8 -2.32 8 -3 8 C-2.67 8.99 -2.34 9.98 -2 11 C-4.31 11 -6.62 11 -9 11 C-9.75 8.8125 -9.75 8.8125 -10 6 C-7.99884104 2.47796023 -6.78058176 1.23417453 -2.875 0.0625 C-1.451875 0.0315625 -1.451875 0.0315625 0 0 Z " fill="#F49614" transform="translate(124,103)"/>
<path d="M0 0 C2.92577938 2.92577938 2.42659177 5.78336157 2.65625 9.78515625 C2.82640625 10.88150391 2.82640625 10.88150391 3 12 C3.66 12.33 4.32 12.66 5 13 C2.29120665 14.35439668 -0.00933268 14.06501451 -3 14 C-3.96070434 11.11788698 -4.10581883 9.30149956 -4.0625 6.3125 C-4.05347656 5.50425781 -4.04445313 4.69601563 -4.03515625 3.86328125 C-4.02355469 3.24839844 -4.01195313 2.63351563 -4 2 C-2.68 1.34 -1.36 0.68 0 0 Z " fill="#F6940E" transform="translate(113,54)"/>
<path d="M0 0 C0.33 0.66 0.66 1.32 1 2 C1.61875 2.12375 2.2375 2.2475 2.875 2.375 C5 3 5 3 6.75 4.6875 C8.32663401 7.60427292 8.22275681 9.73290013 8 13 C3.25 12.25 3.25 12.25 1 10 C0.34 9.67 -0.32 9.34 -1 9 C-1 8.01 -1 7.02 -1 6 C-1.66 6 -2.32 6 -3 6 C-2.67 4.68 -2.34 3.36 -2 2 C-1.34 2 -0.68 2 0 2 C0 1.34 0 0.68 0 0 Z " fill="#F69512" transform="translate(101,101)"/>
<path d="M0 0 C2.97 0.495 2.97 0.495 6 1 C6 2.65 6 4.3 6 6 C5.401875 6.268125 4.80375 6.53625 4.1875 6.8125 C1.95745037 7.87102051 1.95745037 7.87102051 0.5 9.625 C-1 11 -1 11 -5 11 C-5.25532751 7.93606987 -5.21861333 6.36766788 -3.625 3.6875 C-3.08875 3.130625 -2.5525 2.57375 -2 2 C-1.34 2 -0.68 2 0 2 C0 1.34 0 0.68 0 0 Z " fill="#F7930F" transform="translate(140,82)"/>
<path d="M0 0 C0.33 0.66 0.66 1.32 1 2 C0.360625 2.598125 -0.27875 3.19625 -0.9375 3.8125 C-3.20310389 5.90810337 -3.20310389 5.90810337 -4 9 C-2.68 8.34 -1.36 7.68 0 7 C2 9 2 9 2.046875 12.01171875 C1.05987366 24.23235375 1.05987366 24.23235375 -1 30 C-1.33 30 -1.66 30 -2 30 C-1.4618629 24.30948637 -0.8599867 18.65134116 0 13 C-0.99 12.67 -1.98 12.34 -3 12 C-3.33 13.65 -3.66 15.3 -4 17 C-4.33 17 -4.66 17 -5 17 C-4.979375 15.9275 -4.95875 14.855 -4.9375 13.75 C-4.80555552 10.23473478 -4.80555552 10.23473478 -5.6875 7.96875 C-6 6 -6 6 -4.78515625 4.296875 C-4.21667969 3.78640625 -3.64820312 3.2759375 -3.0625 2.75 C-2.21365234 1.96882812 -2.21365234 1.96882812 -1.34765625 1.171875 C-0.90292969 0.78515625 -0.45820312 0.3984375 0 0 Z " fill="#0B502F" transform="translate(94,146)"/>
<path d="M0 0 C1.65 0 3.3 0 5 0 C4.6875 1.9375 4.6875 1.9375 4 4 C3.01 4.33 2.02 4.66 1 5 C1 6.32 1 7.64 1 9 C-1.64 9.33 -4.28 9.66 -7 10 C-7.04254356 8.00045254 -7.04080783 5.99958364 -7 4 C-6 3 -6 3 -3.4375 2.9375 C-2.2309375 2.9684375 -2.2309375 2.9684375 -1 3 C-0.67 2.01 -0.34 1.02 0 0 Z " fill="#F39314" transform="translate(141,95)"/>
<path d="M0 0 C1.32 0 2.64 0 4 0 C5.29382821 8.05914682 4.64122886 14.28522417 2 22 C1.67 22 1.34 22 1 22 C0.83126522 20.56274129 0.66509263 19.12518162 0.5 17.6875 C0.4071875 16.88699219 0.314375 16.08648437 0.21875 15.26171875 C-0.26918752 10.21679333 0 5.06785031 0 0 Z " fill="#036536" transform="translate(81,147)"/>
<path d="M0 0 C0.66 0.33 1.32 0.66 2 1 C1.67 1.66 1.34 2.32 1 3 C-0.28687011 6.86061033 -0.13757618 9.94150283 0 14 C1.32 14.66 2.64 15.32 4 16 C4.33 15.34 4.66 14.68 5 14 C4.67 15.32 4.34 16.64 4 18 C1.03824877 17.38722388 -0.38058783 16.74627478 -3 15 C-3.99 15.495 -3.99 15.495 -5 16 C-5 14.35 -5 12.7 -5 11 C-6.65 10.67 -8.3 10.34 -10 10 C-10 10.66 -10 11.32 -10 12 C-10.99 12 -11.98 12 -13 12 C-13 11.34 -13 10.68 -13 10 C-10 8 -10 8 -7.0625 7.8125 C-3.9953339 7.32632299 -3.9953339 7.32632299 -2.72265625 5.3828125 C-1.73453394 3.63162065 -0.85934751 1.81785051 0 0 Z " fill="#DF9627" transform="translate(131,55)"/>
<path d="M0 0 C8.58207518 0.16955468 8.58207518 0.16955468 12.6953125 2.36328125 C12.3653125 3.68328125 12.0353125 5.00328125 11.6953125 6.36328125 C3.2803125 4.87828125 3.2803125 4.87828125 -5.3046875 3.36328125 C-2.3046875 0.36328125 -2.3046875 0.36328125 0 0 Z " fill="#036434" transform="translate(58.3046875,88.63671875)"/>
<path d="M0 0 C0.66 0.33 1.32 0.66 2 1 C2 2.98 2 4.96 2 7 C0.02 7.99 0.02 7.99 -2 9 C-1.34 9.66 -0.68 10.32 0 11 C-2.66666667 11 -5.33333333 11 -8 11 C-10.15028304 11.94978897 -10.15028304 11.94978897 -12 13 C-12 10.69 -12 8.38 -12 6 C-8.04 6 -4.08 6 0 6 C0 4.02 0 2.04 0 0 Z " fill="#E69821" transform="translate(90,74)"/>
<path d="M0 0 C0.66 0.99 1.32 1.98 2 3 C-3.16734366 4.64915223 -8.53065338 6.13367039 -14 6 C-14.66 5.34 -15.32 4.68 -16 4 C-15.34 3.01 -14.68 2.02 -14 1 C-14 1.66 -14 2.32 -14 3 C-12.80375 2.505 -11.6075 2.01 -10.375 1.5 C-6.78499903 0.16329751 -3.86563906 -0.55223415 0 0 Z " fill="#036635" transform="translate(175,116)"/>
<path d="M0 0 C3.4375 0.8125 3.4375 0.8125 7 2 C7.33 2.99 7.66 3.98 8 5 C8.66 5 9.32 5 10 5 C10 6.98 10 8.96 10 11 C7.03 10.505 7.03 10.505 4 10 C3.67 8.02 3.34 6.04 3 4 C2.01 4 1.02 4 0 4 C0 2.68 0 1.36 0 0 Z " fill="#F89310" transform="translate(99,90)"/>
<path d="M0 0 C0.33 0 0.66 0 1 0 C1.66 3.96 2.32 7.92 3 12 C0 14 0 14 -3 14 C-4.49821059 10.62902617 -5 8.79557881 -5 5 C-3.68 5 -2.36 5 -1 5 C-0.67 3.35 -0.34 1.7 0 0 Z " fill="#0A5D36" transform="translate(146,162)"/>
<path d="M0 0 C2 3 2 3 1.625 5.1875 C1.41875 5.785625 1.2125 6.38375 1 7 C0.26394531 7.06058594 -0.47210938 7.12117188 -1.23046875 7.18359375 C-2.20628906 7.26738281 -3.18210938 7.35117188 -4.1875 7.4375 C-5.15042969 7.51871094 -6.11335937 7.59992188 -7.10546875 7.68359375 C-9.78649602 7.97666151 -12.3662986 8.42703754 -15 9 C-15 8.34 -15 7.68 -15 7 C-8.07 5.515 -8.07 5.515 -1 4 C-1.33 3.34 -1.66 2.68 -2 2 C-3.58367747 2.14204741 -5.16693318 2.28880153 -6.75 2.4375 C-7.63171875 2.51871094 -8.5134375 2.59992188 -9.421875 2.68359375 C-11.69350452 2.96238465 -13.79851823 3.38790577 -16 4 C-16 3.34 -16 2.68 -16 2 C-10.88390523 -0.15414517 -5.49666269 -0.91940581 0 0 Z " fill="#0C4F2F" transform="translate(177,115)"/>
<path d="M0 0 C-0.556875 0.24234375 -1.11375 0.4846875 -1.6875 0.734375 C-3.29657519 1.44106343 -4.90179033 2.15657941 -6.50390625 2.87890625 C-8.00303717 3.55222483 -9.5090675 4.21088538 -11.02734375 4.83984375 C-19.3668894 8.54062372 -26.28063575 14.64647641 -30 23 C-30.66 22.67 -31.32 22.34 -32 22 C-27.8550436 11.63760901 -18.49169287 5.473306 -8.69140625 0.9296875 C-3.5247213 -1.1749071 -3.5247213 -1.1749071 0 0 Z " fill="#14542C" transform="translate(161,99)"/>
<path d="M0 0 C2.0625 0.4375 2.0625 0.4375 4 1 C4 1.66 4 2.32 4 3 C4.598125 3.268125 5.19625 3.53625 5.8125 3.8125 C8.04593283 5.02493496 9.49938199 5.94652273 11 8 C10.6875 10.1875 10.6875 10.1875 10 12 C9.278125 11.401875 8.55625 10.80375 7.8125 10.1875 C5.10922425 7.96383496 5.10922425 7.96383496 2.25 6.5 C0 5 0 5 -0.875 2.875 C-0.91625 2.25625 -0.9575 1.6375 -1 1 C-0.67 0.67 -0.34 0.34 0 0 Z " fill="#046438" transform="translate(118,137)"/>
<path d="M0 0 C3.96 1.98 3.96 1.98 8 4 C8 5.32 8 6.64 8 8 C8.66 8.33 9.32 8.66 10 9 C9.67 9.66 9.34 10.32 9 11 C7.35 11 5.7 11 4 11 C3.67 9.35 3.34 7.7 3 6 C2.01 5.67 1.02 5.34 0 5 C0 3.35 0 1.7 0 0 Z " fill="#F79611" transform="translate(98,62)"/>
<path d="M0 0 C1.65 0 3.3 0 5 0 C5.91384641 2.46738531 6.03486045 3.84893806 5.4375 6.4375 C3.4631012 9.95708048 1.36404879 11.77845835 -2 14 C-5.875 14.3125 -5.875 14.3125 -9 14 C-8.67 12.68 -8.34 11.36 -8 10 C-8 10.66 -8 11.32 -8 12 C-5.36 11.67 -2.72 11.34 0 11 C0 9.68 0 8.36 0 7 C0.99 6.34 1.98 5.68 3 5 C3.72382467 2.94074861 3.72382467 2.94074861 4 1 C2.68 0.67 1.36 0.34 0 0 Z " fill="#CA922E" transform="translate(142,93)"/>
<path d="M0 0 C3 1 3 1 4.0625 3.0625 C5.21657994 6.67861715 6.12356902 10.30646946 7 14 C5.68 14.33 4.36 14.66 3 15 C2.491217 13.44033782 1.99336531 11.87710759 1.5 10.3125 C1.2215625 9.44238281 0.943125 8.57226562 0.65625 7.67578125 C0.00149195 5.00608323 -0.11831495 2.73603316 0 0 Z " fill="#046437" transform="translate(132,164)"/>
<path d="M0 0 C0.99 0.66 1.98 1.32 3 2 C2.33333333 4 1.66666667 6 1 8 C0.84015625 8.76957031 0.6803125 9.53914063 0.515625 10.33203125 C-0.08144119 12.82922025 -0.67027723 14.7986195 -2 17 C-6.20638869 19.35186863 -10.49287253 19.38141488 -15.0625 18.125 C-16.031875 17.75375 -17.00125 17.3825 -18 17 C-17.505 15.515 -17.505 15.515 -17 14 C-17 14.66 -17 15.32 -17 16 C-13.37 16.33 -9.74 16.66 -6 17 C-6 16.34 -6 15.68 -6 15 C-5.01 15 -4.02 15 -3 15 C-2.87625 13.906875 -2.7525 12.81375 -2.625 11.6875 C-2 8 -2 8 0 5 C0.16713569 2.37468476 0.16713569 2.37468476 0 0 Z " fill="#BD8936" transform="translate(123,117)"/>
<path d="M0 0 C1.32 0 2.64 0 4 0 C4 0.99 4 1.98 4 3 C2.68 2.67 1.36 2.34 0 2 C0.33 3.98 0.66 5.96 1 8 C-2.08809695 9.76462683 -3.23312136 10 -7 10 C-6.67 8.02 -6.34 6.04 -6 4 C-5.01 4 -4.02 4 -3 4 C-2.2884375 3.01 -2.2884375 3.01 -1.5625 2 C-1.046875 1.34 -0.53125 0.68 0 0 Z " fill="#F79410" transform="translate(142,70)"/>
<path d="M0 0 C0.33 0.66 0.66 1.32 1 2 C0.20335937 2.03738281 -0.59328125 2.07476562 -1.4140625 2.11328125 C-9.62745787 2.56716438 -9.62745787 2.56716438 -17 6 C-17.33 6.66 -17.66 7.32 -18 8 C-17.01 8.33 -16.02 8.66 -15 9 C-18 11 -18 11 -20 11 C-20 8.36 -20 5.72 -20 3 C-13.19925959 1.09579269 -7.08076251 -0.40850553 0 0 Z " fill="#19572E" transform="translate(170,87)"/>
<path d="M0 0 C3.3 0 6.6 0 10 0 C10.33 0.66 10.66 1.32 11 2 C10.236875 2.061875 9.47375 2.12375 8.6875 2.1875 C5.78150152 2.76383472 5.78150152 2.76383472 4.25 5.5 C3.8375 6.325 3.425 7.15 3 8 C2.67 8.33 2.34 8.66 2 9 C1.76924918 10.34747084 1.58846937 11.70377565 1.4375 13.0625 C1.2209375 15.0115625 1.2209375 15.0115625 1 17 C0.67 17 0.34 17 0 17 C-1.35280553 6.6848578 -1.35280553 6.6848578 0.0625 3.9375 C0.5265625 2.9784375 0.5265625 2.9784375 1 2 C0.67 1.34 0.34 0.68 0 0 Z " fill="#0D4A2B" transform="translate(99,143)"/>
<path d="M0 0 C0.99 0 1.98 0 3 0 C3 0.66 3 1.32 3 2 C4.32 2 5.64 2 7 2 C8 5 8 5 6.8125 8.5 C5.11093319 11.78578418 4.12149207 13.17015982 1 15 C0.67 14.01 0.34 13.02 0 12 C0.66 12 1.32 12 2 12 C2 11.34 2 10.68 2 10 C2.99 10 3.98 10 5 10 C4.34 8.35 3.68 6.7 3 5 C1.35 5 -0.3 5 -2 5 C-1.34 4.67 -0.68 4.34 0 4 C0 2.68 0 1.36 0 0 Z " fill="#DF962D" transform="translate(121,99)"/>
<path d="M0 0 C0.33 0 0.66 0 1 0 C1 1.98 1 3.96 1 6 C1.763125 5.649375 2.52625 5.29875 3.3125 4.9375 C6 4 6 4 9 5 C9 5.33 9 5.66 9 6 C10.32 6 11.64 6 13 6 C13.33 6.99 13.66 7.98 14 9 C11.36 8.67 8.72 8.34 6 8 C5.34 9.32 4.68 10.64 4 12 C3.34 12 2.68 12 2 12 C2 11.34 2 10.68 2 10 C2.66 10 3.32 10 4 10 C4 9.34 4 8.68 4 8 C2.35 7.67 0.7 7.34 -1 7 C-1.04254356 5.00045254 -1.04080783 2.99958364 -1 1 C-0.67 0.67 -0.34 0.34 0 0 Z " fill="#DD9332" transform="translate(115,82)"/>
<path d="M0 0 C1.65 0 3.3 0 5 0 C5 0.99 5 1.98 5 3 C4.34 3 3.68 3 3 3 C3.33857575 6.04718178 3.83107022 7.7747603 5.6875 10.25 C8.46594942 12.35261037 10.56753564 12.68795779 14 13 C14 13.33 14 13.66 14 14 C9.92325579 14.31974464 7.67970704 14.43803342 4.1875 12.1875 C1.11679625 9.11679625 0.02476794 7.73065427 -0.125 3.3125 C-0.08375 2.219375 -0.0425 1.12625 0 0 Z " fill="#CA8D2B" transform="translate(78,93)"/>
<path d="M0 0 C1.60973507 0.56778648 3.21265327 1.1549211 4.8125 1.75 C5.70582031 2.07484375 6.59914063 2.3996875 7.51953125 2.734375 C10.24295161 4.12396271 11.38324384 5.44326932 13 8 C11.3125 8.6875 11.3125 8.6875 9 9 C6.5 7.625 6.5 7.625 4 6 C1.80869466 5.30420546 1.80869466 5.30420546 0 5 C0 3.35 0 1.7 0 0 Z " fill="#046637" transform="translate(70,101)"/>
<path d="M0 0 C3.45366427 2.66874058 4.19350685 5.82089913 5 10 C4.125 12.4375 4.125 12.4375 3 14 C0.85159327 12.25586336 0.06622501 11.29612041 -0.546875 8.5546875 C-0.61390625 7.67039063 -0.6809375 6.78609375 -0.75 5.875 C-0.82734375 4.98554688 -0.9046875 4.09609375 -0.984375 3.1796875 C-0.99210937 2.10074219 -0.99210937 2.10074219 -1 1 C-0.67 0.67 -0.34 0.34 0 0 Z " fill="#036634" transform="translate(123,160)"/>
<path d="M0 0 C1.66611905 -0.042721 3.33382885 -0.04063832 5 0 C6 1 6 1 6.0625 4.5625 C6.041875 5.696875 6.02125 6.83125 6 8 C1.61667943 7.17812739 -2.67940177 6.09845718 -7 5 C-7 4.67 -7 4.34 -7 4 C-1.25 3.875 -1.25 3.875 1 5 C0.67 3.35 0.34 1.7 0 0 Z " fill="#135830" transform="translate(69,90)"/>
<path d="M0 0 C0.33 1.65 0.66 3.3 1 5 C0.01 5 -0.98 5 -2 5 C-2 4.01 -2 3.02 -2 2 C-2.66 2 -3.32 2 -4 2 C-3.67 4.31 -3.34 6.62 -3 9 C-2.34 9 -1.68 9 -1 9 C-1 10.98 -1 12.96 -1 15 C-2.92330138 13.07669862 -3.9761981 11.50216551 -5.25 9.125 C-5.62640625 8.44695312 -6.0028125 7.76890625 -6.390625 7.0703125 C-7 5 -7 5 -6.234375 2.8046875 C-4.35039134 0.0502557 -3.34378629 0 0 0 Z " fill="#CE8F2C" transform="translate(106,116)"/>
<path d="M0 0 C3.375 -0.125 3.375 -0.125 7 0 C7.66 0.66 8.32 1.32 9 2 C7 3 7 3 6 3 C5.67 4.32 5.34 5.64 5 7 C3.68 7.33 2.36 7.66 1 8 C0.17361624 5.10765685 0 3.11257569 0 0 Z " fill="#F5960D" transform="translate(120,90)"/>
<path d="M0 0 C0.66 0.33 1.32 0.66 2 1 C1.88570603 2.77155654 1.75816963 4.54226229 1.625 6.3125 C1.55539063 7.29863281 1.48578125 8.28476563 1.4140625 9.30078125 C1 12 1 12 -1 15 C-1.99 14.67 -2.98 14.34 -4 14 C-3.41196203 10.97580475 -2.77321882 7.98241547 -2 5 C-1.34 5 -0.68 5 0 5 C0 3.35 0 1.7 0 0 Z " fill="#056537" transform="translate(91,164)"/>
<path d="M0 0 C0.33 0.66 0.66 1.32 1 2 C0.0625 4.125 0.0625 4.125 -1 6 C0.32 6.66 1.64 7.32 3 8 C2.34 8 1.68 8 1 8 C0.67 8.66 0.34 9.32 0 10 C-0.66 9.67 -1.32 9.34 -2 9 C-4.59585206 9.46041295 -7.1276146 10.09384719 -9.6875 10.72265625 C-10.450625 10.81417969 -11.21375 10.90570313 -12 11 C-12.66 10.34 -13.32 9.68 -14 9 C-13.34 9 -12.68 9 -12 9 C-12 8.34 -12 7.68 -12 7 C-9.03 7.33 -6.06 7.66 -3 8 C-2.87625 7.236875 -2.7525 6.47375 -2.625 5.6875 C-2 3 -2 3 0 0 Z " fill="#04522C" transform="translate(145,130)"/>
<path d="M0 0 C0.74507812 0.05220703 1.49015625 0.10441406 2.2578125 0.15820312 C4.08894861 0.2873217 5.91953813 0.42415114 7.75 0.5625 C7.75 1.5525 7.75 2.5425 7.75 3.5625 C4.79081802 3.44891524 1.83323217 3.32216914 -1.125 3.1875 C-1.96675781 3.1565625 -2.80851562 3.125625 -3.67578125 3.09375 C-4.48144531 3.05507812 -5.28710938 3.01640625 -6.1171875 2.9765625 C-6.86081543 2.9451416 -7.60444336 2.9137207 -8.37060547 2.88134766 C-10.25 2.5625 -10.25 2.5625 -12.25 0.5625 C-8.10340627 -0.63549449 -4.25630953 -0.3271192 0 0 Z " fill="#055128" transform="translate(90.25,142.4375)"/>
<path d="M0 0 C3.30615256 2.94678815 3.79282112 5.77487392 5 10 C6.45833358 11.62514468 6.45833358 11.62514468 8 13 C9.1875 15.6875 9.1875 15.6875 10 18 C6.11426664 16.47346189 4.17764805 14.55682515 2 11 C1.08812987 7.3627652 0.49448529 3.71514605 0 0 Z " fill="#DE912E" transform="translate(94,57)"/>
<path d="M0 0 C1.9375 0.9375 1.9375 0.9375 4 3 C4.78170189 5.98467994 5.17556027 8.91599125 5 12 C4.34 12.66 3.68 13.32 3 14 C2.67 13.01 2.34 12.02 2 11 C1.01 11.495 1.01 11.495 0 12 C0.020625 11.21625 0.04125 10.4325 0.0625 9.625 C0.18684063 7.01885039 0.18684063 7.01885039 -1 5 C-0.72057545 3.32345271 -0.39171753 1.65391846 0 0 Z " fill="#E89920" transform="translate(134,55)"/>
<path d="M0 0 C1.32 0.66 2.64 1.32 4 2 C3.34 5.63 2.68 9.26 2 13 C1.67 12.34 1.34 11.68 1 11 C0.01 11 -0.98 11 -2 11 C-1.34 7.37 -0.68 3.74 0 0 Z " fill="#056537" transform="translate(100,162)"/>
<path d="M0 0 C7.38461538 1.35384615 7.38461538 1.35384615 10.5 4.625 C10.995 5.40875 11.49 6.1925 12 7 C10.25 7.6875 10.25 7.6875 8 8 C6 6.75 6 6.75 4 5 C3.2575 4.484375 2.515 3.96875 1.75 3.4375 C0.88375 2.7259375 0.88375 2.7259375 0 2 C0 1.34 0 0.68 0 0 Z " fill="#076135" transform="translate(104,136)"/>
<path d="M0 0 C5.62511657 3.6630401 5.62511657 3.6630401 6.58886719 7.10009766 C6.81329991 9.51858869 6.88266762 11.8837814 6.875 14.3125 C6.895625 15.14845703 6.91625 15.98441406 6.9375 16.84570312 C6.98438005 18.8967055 6.99573929 20.94846635 7 23 C4.64626599 19.46939899 4.34221585 16.41404244 3.875 12.3125 C3.78863281 11.61060547 3.70226562 10.90871094 3.61328125 10.18554688 C3.40173125 8.45788855 3.199914 6.7290434 3 5 C2.01 4.67 1.02 4.34 0 4 C0 2.68 0 1.36 0 0 Z " fill="#0C4C2C" transform="translate(121,146)"/>
<path d="M0 0 C0.33 0 0.66 0 1 0 C1.09733092 7.09434233 1.10087193 13.98194143 0 21 C-0.33 21 -0.66 21 -1 21 C-1 16.05 -1 11.1 -1 6 C-1.99 5.67 -2.98 5.34 -4 5 C-2.69254251 3.31295807 -1.35827971 1.64639965 0 0 Z " fill="#195D32" transform="translate(105,146)"/>
<path d="M0 0 C0.66 0.33 1.32 0.66 2 1 C1.34 1.66 0.68 2.32 0 3 C-1.3492671 5.92341206 -2 7.75207316 -2 11 C-3.32 11 -4.64 11 -6 11 C-5.814375 10.05125 -5.62875 9.1025 -5.4375 8.125 C-4.71313368 5.10131207 -4.71313368 5.10131207 -6 3 C-5.34 2.34 -4.68 1.68 -4 1 C-4 1.66 -4 2.32 -4 3 C-2.68 2.01 -1.36 1.02 0 0 Z " fill="#096537" transform="translate(130,125)"/>
<path d="M0 0 C4.59740643 0.03683819 8.53367656 0.90638773 12.9375 2.1875 C12.2775 2.8475 11.6175 3.5075 10.9375 4.1875 C7.79797227 3.83073548 4.77782586 3.15372278 1.6875 2.5 C0.78 2.396875 -0.1275 2.29375 -1.0625 2.1875 C-1.7225 2.8475 -2.3825 3.5075 -3.0625 4.1875 C-4.0525 4.1875 -5.0425 4.1875 -6.0625 4.1875 C-5.7325 5.1775 -5.4025 6.1675 -5.0625 7.1875 C-6.0525 6.8575 -7.0425 6.5275 -8.0625 6.1875 C-4.43589758 0.03804372 -4.43589758 0.03804372 0 0 Z " fill="#0D4D2D" transform="translate(54.0625,105.8125)"/>
<path d="M0 0 C0.680625 0.165 1.36125 0.33 2.0625 0.5 C2.0625 0.83 2.0625 1.16 2.0625 1.5 C-1.5675 1.5 -5.1975 1.5 -8.9375 1.5 C-9.5975 2.82 -10.2575 4.14 -10.9375 5.5 C-8.2975 5.5 -5.6575 5.5 -2.9375 5.5 C-2.9375 5.83 -2.9375 6.16 -2.9375 6.5 C-6.5675 6.5 -10.1975 6.5 -13.9375 6.5 C-13.6075 4.85 -13.2775 3.2 -12.9375 1.5 C-8.65215609 -1.35689594 -4.97351927 -0.84655647 0 0 Z " fill="#0F4C2F" transform="translate(61.9375,96.5)"/>
<path d="M0 0 C1.65 0 3.3 0 5 0 C5 0.99 5 1.98 5 3 C3.68 3.33 2.36 3.66 1 4 C1 4.99 1 5.98 1 7 C-0.65 6.67 -2.3 6.34 -4 6 C-4 6.99 -4 7.98 -4 9 C-4.66 9 -5.32 9 -6 9 C-5.39816251 6.97954558 -4.72693904 4.97888961 -4 3 C-3.34 2.67 -2.68 2.34 -2 2 C-1.67 2.99 -1.34 3.98 -1 5 C-0.67 3.35 -0.34 1.7 0 0 Z " fill="#0E6439" transform="translate(132,117)"/>
<path d="M0 0 C0.99 0.33 1.98 0.66 3 1 C3 1.99 3 2.98 3 4 C0.39740876 4.53010201 -2.206557 5.04937795 -4.8125 5.5625 C-5.55048828 5.71396484 -6.28847656 5.86542969 -7.04882812 6.02148438 C-12.66015625 7.11328125 -12.66015625 7.11328125 -16 6 C-14.08684881 3.42380724 -13.0983686 3.01604768 -9.86328125 2.48828125 C-8.69152344 2.43027344 -7.51976562 2.37226562 -6.3125 2.3125 C-5.13300781 2.24675781 -3.95351562 2.18101563 -2.73828125 2.11328125 C-1.38283203 2.05720703 -1.38283203 2.05720703 0 2 C0 1.34 0 0.68 0 0 Z " fill="#0C4E2D" transform="translate(171,89)"/>
<path d="M0 0 C0.66 0.33 1.32 0.66 2 1 C2 3.97 2 6.94 2 10 C-0.4375 9.25 -0.4375 9.25 -3 8 C-3.9375 6.0625 -3.9375 6.0625 -4 4 C-2 1 -2 1 0 0 Z " fill="#EE951B" transform="translate(83,83)"/>
<path d="M0 0 C2.31 0.33 4.62 0.66 7 1 C6.67 1.99 6.34 2.98 6 4 C5.34 4 4.68 4 4 4 C4 6.31 4 8.62 4 11 C2 9.4375 2 9.4375 0 7 C-0.25 3.25 -0.25 3.25 0 0 Z " fill="#DC952C" transform="translate(78,67)"/>
<path d="M0 0 C5.625 -0.25 5.625 -0.25 9 2 C9.66 1.67 10.32 1.34 11 1 C11.625 2.875 11.625 2.875 12 5 C11.34 5.66 10.68 6.32 10 7 C8.02 5.35 6.04 3.7 4 2 C3.67 2.99 3.34 3.98 3 5 C1.5 3.625 1.5 3.625 0 2 C0 1.34 0 0.68 0 0 Z " fill="#036632" transform="translate(63,121)"/>
<path d="M0 0 C0.99 0.33 1.98 0.66 3 1 C1.68 2.32 0.36 3.64 -1 5 C0.32 5.66 1.64 6.32 3 7 C2.195625 7.12375 1.39125 7.2475 0.5625 7.375 C-0.7059375 7.684375 -0.7059375 7.684375 -2 8 C-2.33 8.66 -2.66 9.32 -3 10 C-4.32 9.67 -5.64 9.34 -7 9 C-5.625 6.5 -5.625 6.5 -4 4 C-3.34 4 -2.68 4 -2 4 C-1.34 2.68 -0.68 1.36 0 0 Z " fill="#DF9222" transform="translate(143,88)"/>
<path d="M0 0 C1.98 0 3.96 0 6 0 C5.67 0.66 5.34 1.32 5 2 C4.01 2 3.02 2 2 2 C2.185625 2.969375 2.37125 3.93875 2.5625 4.9375 C2.706875 5.948125 2.85125 6.95875 3 8 C2 9 2 9 -0.5625 9.0625 C-1.366875 9.041875 -2.17125 9.02125 -3 9 C-3.33 9.66 -3.66 10.32 -4 11 C-4.33 9.68 -4.66 8.36 -5 7 C-3.02 7 -1.04 7 1 7 C0.67 4.69 0.34 2.38 0 0 Z " fill="#DD9C31" transform="translate(109,68)"/>
<path d="M0 0 C0.66 0.99 1.32 1.98 2 3 C1 6 1 6 -2 8 C-4.6875 8.125 -4.6875 8.125 -7 8 C-5.50902342 4.2047869 -3.24299151 2.38957269 0 0 Z " fill="#FC9213" transform="translate(125,64)"/>
<path d="M0 0 C0.99 0.99 1.98 1.98 3 3 C2.01 4.485 2.01 4.485 1 6 C1 7.32 1 8.64 1 10 C1.66 10 2.32 10 3 10 C3.66 9.34 4.32 8.68 5 8 C4.67 9.65 4.34 11.3 4 13 C2.02 12.34 0.04 11.68 -2 11 C-1.34 7.37 -0.68 3.74 0 0 Z " fill="#0C4E2E" transform="translate(87,168)"/>
<path d="M0 0 C2 2 2 2 2.1953125 3.9453125 C2.13020833 5.96354167 2.06510417 7.98177083 2 10 C2.66 10 3.32 10 4 10 C4.33 9.34 4.66 8.68 5 8 C4.67 9.32 4.34 10.64 4 12 C2.02 11.01 0.04 10.02 -2 9 C-1.34 6.03 -0.68 3.06 0 0 Z " fill="#0F4D31" transform="translate(78,165)"/>
<path d="M0 0 C0.66 0 1.32 0 2 0 C2.33 1.65 2.66 3.3 3 5 C3.928125 5.0825 4.85625 5.165 5.8125 5.25 C9 6 9 6 10.875 8.0625 C11.24625 8.701875 11.6175 9.34125 12 10 C8.64566891 9.05066101 5.30753495 8.10251165 2 7 C0.8125 3.4375 0.8125 3.4375 0 0 Z " fill="#055028" transform="translate(95,132)"/>
<path d="M0 0 C0.99 0 1.98 0 3 0 C2.67 1.32 2.34 2.64 2 4 C2.99 4.33 3.98 4.66 5 5 C4.67 5.66 4.34 6.32 4 7 C2.35 7 0.7 7 -1 7 C-1.33 5.68 -1.66 4.36 -2 3 C-1.34 3 -0.68 3 0 3 C0 2.01 0 1.02 0 0 Z " fill="#F9940B" transform="translate(104,80)"/>
<path d="M0 0 C0.66 0 1.32 0 2 0 C2.8125 2.6875 2.8125 2.6875 3 6 C0.5625 8.875 0.5625 8.875 -2 11 C-2.33 9.02 -2.66 7.04 -3 5 C-1.68 5.33 -0.36 5.66 1 6 C0.67 4.02 0.34 2.04 0 0 Z " fill="#DD9632" transform="translate(145,67)"/>
<path d="M0 0 C0.99 0 1.98 0 3 0 C2.34994658 1.30010683 1.68402994 2.59244386 1 3.875 C0.03965389 5.91573548 -0.52882577 7.80118692 -1 10 C-2.32 9.67 -3.64 9.34 -5 9 C-4.3566152 7.686298 -3.71021785 6.37407102 -3.0625 5.0625 C-2.70285156 4.33160156 -2.34320313 3.60070312 -1.97265625 2.84765625 C-1 1 -1 1 0 0 Z " fill="#05663C" transform="translate(138,127)"/>
<path d="M0 0 C2 2 2 2 2 6 C0.68 6.33 -0.64 6.66 -2 7 C-2 6.01 -2 5.02 -2 4 C-2.99 3.67 -3.98 3.34 -5 3 C-5 2.34 -5 1.68 -5 1 C-2.625 0.375 -2.625 0.375 0 0 Z " fill="#F5930E" transform="translate(124,103)"/>
<path d="M0 0 C3 2 3 2 3.75 5.5625 C3.8325 6.696875 3.915 7.83125 4 9 C3 10 3 10 0.4375 10.0625 C-0.366875 10.041875 -1.17125 10.02125 -2 10 C-1.01 9.67 -0.02 9.34 1 9 C0.835 7.88625 0.67 6.7725 0.5 5.625 C0 2 0 2 0 0 Z " fill="#DA9B3A" transform="translate(108,80)"/>
<path d="M0 0 C0.33 0 0.66 0 1 0 C1.22577402 5.4185766 0.46670113 9.77487721 -1 15 C-1.66 14.67 -2.32 14.34 -3 14 C-2.80083984 13.11248047 -2.80083984 13.11248047 -2.59765625 12.20703125 C-1.68994822 8.14553475 -0.7908887 4.08625829 0 0 Z " fill="#0C5032" transform="translate(85,158)"/>
<path d="M0 0 C0.515625 0.495 1.03125 0.99 1.5625 1.5 C4.80680017 3.49649241 7.26217334 3.21564385 11 3 C11 3.66 11 4.32 11 5 C10.34 5 9.68 5 9 5 C9.33 5.99 9.66 6.98 10 8 C9.34 8 8.68 8 8 8 C8 7.34 8 6.68 8 6 C7.236875 5.896875 6.47375 5.79375 5.6875 5.6875 C2.81583516 4.95288806 1.76957906 4.3283935 0 2 C0 1.34 0 0.68 0 0 Z " fill="#27572E" transform="translate(108,140)"/>
<path d="M0 0 C1 3 1 3 0 6 C1.32 6.66 2.64 7.32 4 8 C2.34385343 8.38218767 0.67542976 8.71395102 -1 9 C-1.33 8.67 -1.66 8.34 -2 8 C-1.28 1.28 -1.28 1.28 0 0 Z " fill="#DF9735" transform="translate(116,94)"/>
<path d="M0 0 C0.66 0 1.32 0 2 0 C3.6875 1.8125 3.6875 1.8125 5 4 C4.67 4.99 4.34 5.98 4 7 C1.525 6.01 1.525 6.01 -1 5 C-0.67 3.35 -0.34 1.7 0 0 Z " fill="#086539" transform="translate(130,147)"/>
<path d="M0 0 C0.33 1.32 0.66 2.64 1 4 C1.99 4 2.98 4 4 4 C4.33 5.65 4.66 7.3 5 9 C3.68 9 2.36 9 1 9 C1 8.01 1 7.02 1 6 C0.34 5.67 -0.32 5.34 -1 5 C-0.67 3.35 -0.34 1.7 0 0 Z " fill="#E1971E" transform="translate(98,90)"/>
<path d="M0 0 C0.66 0.33 1.32 0.66 2 1 C2.625 4.0625 2.625 4.0625 3 7 C2.01 7.33 1.02 7.66 0 8 C-0.66 5.69 -1.32 3.38 -2 1 C-1.34 0.67 -0.68 0.34 0 0 Z " fill="#056537" transform="translate(127,174)"/>
<path d="M0 0 C0.33 0 0.66 0 1 0 C2.51708428 9.41002278 2.51708428 9.41002278 0 14 C-0.66 14 -1.32 14 -2 14 C-1.43393721 9.30976546 -0.81462495 4.65499974 0 0 Z " fill="#064D2C" transform="translate(98,161)"/>
<path d="M0 0 C3.40312738 1.05875074 6.01353231 2.00902154 9 4 C8.67 4.66 8.34 5.32 8 6 C5.69 5.34 3.38 4.68 1 4 C0.67 2.68 0.34 1.36 0 0 Z " fill="#0A542F" transform="translate(67,109)"/>
<path d="M0 0 C0.33 0.66 0.66 1.32 1 2 C3.02463255 2.65213292 3.02463255 2.65213292 5 3 C4.67 3.99 4.34 4.98 4 6 C1.69 5.67 -0.62 5.34 -3 5 C-1.125 1.125 -1.125 1.125 0 0 Z " fill="#E99222" transform="translate(118,104)"/>
<path d="M0 0 C0.66 0.33 1.32 0.66 2 1 C2 2.98 2 4.96 2 7 C-2.75 8 -2.75 8 -5 8 C-5 7.34 -5 6.68 -5 6 C-3.35 6 -1.7 6 0 6 C0 4.02 0 2.04 0 0 Z " fill="#E59732" transform="translate(90,74)"/>
<path d="M0 0 C1.98 0 3.96 0 6 0 C5.525625 0.61875 5.05125 1.2375 4.5625 1.875 C2.97582559 3.90705546 2.97582559 3.90705546 2 6 C1.01 5.01 0.02 4.02 -1 3 C-0.67 2.01 -0.34 1.02 0 0 Z " fill="#1F5A29" transform="translate(115,135)"/>
<path d="M0 0 C1.42944945 2.35438733 2.08661261 3.48032433 1.625 6.25 C1.41875 6.8275 1.2125 7.405 1 8 C-0.65 8.33 -2.3 8.66 -4 9 C-4 8.34 -4 7.68 -4 7 C-3.01 6.67 -2.02 6.34 -1 6 C-0.67 4.02 -0.34 2.04 0 0 Z " fill="#0F4B2D" transform="translate(147,167)"/>
<path d="M0 0 C0.33 0 0.66 0 1 0 C1 1.98 1 3.96 1 6 C1.99 6 2.98 6 4 6 C4 6.66 4 7.32 4 8 C2.35 7.67 0.7 7.34 -1 7 C-0.67 4.69 -0.34 2.38 0 0 Z " fill="#D39742" transform="translate(134,87)"/>
<path d="M0 0 C3.375 0.25 3.375 0.25 7 1 C8.4375 3.0625 8.4375 3.0625 9 5 C5.54074837 3.7508258 2.85306797 2.32472205 0 0 Z " fill="#094C29" transform="translate(70,106)"/>
<path d="M0 0 C-0.33 1.32 -0.66 2.64 -1 4 C-1.66 4 -2.32 4 -3 4 C-3.33 4.66 -3.66 5.32 -4 6 C-4.33 4.35 -4.66 2.7 -5 1 C-3 0 -3 0 0 0 Z " fill="#046538" transform="translate(151,104)"/>
<path d="" fill="#000000" transform="translate(0,0)"/>
<path d="" fill="#FFFF00" transform="translate(0,0)"/>
<path d="" fill="#FFFF00" transform="translate(0,0)"/>
<path d="" fill="#FFFF00" transform="translate(0,0)"/>
<path d="" fill="#000000" transform="translate(0,0)"/>
<path d="" fill="#000000" transform="translate(0,0)"/>
<path d="" fill="#000000" transform="translate(0,0)"/>
</svg>
